<svg width="177" height="167" viewBox="0 0 177 167" fill="none" xmlns="http://www.w3.org/2000/svg">
<mask id="mask0_1_1335" style="mask-type:alpha" maskUnits="userSpaceOnUse" x="0" y="0" width="177" height="167">
<rect width="176.435" height="167" rx="10" fill="url(#paint0_linear_1_1335)"/>
</mask>
<g mask="url(#mask0_1_1335)">
<path d="M178.879 -45.4552H-0.201172V207.82H178.879V-45.4552Z" fill="#F2EFE4"/>
<path d="M-0.20105 -8.77919V207.82H178.879V4.42727L-0.20105 -8.77919Z" fill="#F2EBD6"/>
<path d="M-0.20105 79.1361V207.82H178.879V39.8122L-0.20105 79.1361Z" fill="#F2E8C8"/>
<path d="M14.4493 75.1753L20.128 75.1972C21.4191 73.0198 23.8043 71.5536 26.5288 71.5646C30.5772 71.5865 33.8815 74.8252 34.0237 78.8407L24.6797 78.797L19.0995 78.7751L10.7401 78.7423C10.8058 76.7618 12.4361 75.1753 14.4493 75.1753Z" fill="#F7F9ED"/>
<path d="M71.225 22.589C70.5685 17.2715 66.0387 13.1465 60.5461 13.1465C57.8763 13.1465 55.4364 14.1312 53.5544 15.7396C50.6111 10.1266 44.7355 6.29707 37.9518 6.29707C30.7085 6.29707 24.4827 10.6737 21.7802 16.9323C21.3863 16.8666 20.9814 16.8229 20.5766 16.8229C17.1081 16.8229 14.2305 19.3066 13.6068 22.589H71.225Z" fill="#F7F9ED"/>
<path d="M97.4406 52.6578C94.3332 56.2685 87.7573 55.6886 87.7573 55.6886C87.7573 55.6886 86.2036 49.2659 89.311 45.6552C92.4184 42.0445 98.9943 42.6244 98.9943 42.6244C98.9943 42.6244 100.537 49.047 97.4406 52.6578Z" fill="#CC691E"/>
<path d="M73.1284 149.709C68.8175 151.723 63.0513 148.506 63.0513 148.506C63.0513 148.506 64.2658 142.006 68.5768 139.993C72.8877 137.98 78.6539 141.197 78.6539 141.197C78.6539 141.197 77.4394 147.696 73.1284 149.709Z" fill="#FE9A4F"/>
<path d="M17.8433 156.271L204.068 154.381L160.891 71.7188C160.133 70.2732 158.687 69.2369 157.059 69.2107C156.136 69.1933 155.195 69.4633 154.377 70.0468L145.146 76.5956C143.935 77.4491 142.359 77.5623 141.044 76.883L134.242 73.3734C132.71 72.581 130.863 72.6855 129.435 73.6521L17.852 149.539V156.271H17.8433Z" fill="#F2D88A"/>
<path d="M163.093 83.0923C155.865 83.0923 149.36 86.21 144.858 91.1739C140.756 95.1972 138.213 100.797 138.213 106.997C138.213 108.33 138.335 109.636 138.561 110.899C133.806 112.954 130.34 117.413 129.661 122.743C128.694 122.542 127.693 122.438 126.665 122.438C122.903 122.438 119.472 123.84 116.842 126.139C115.039 122.081 110.981 119.25 106.261 119.25C103.361 119.25 100.722 120.322 98.6847 122.081C97.1258 117.526 92.8151 114.243 87.7293 114.243C84.1762 114.243 80.9975 115.845 78.8726 118.362C76.5213 115.035 72.6634 112.858 68.283 112.858C67.8127 112.858 67.3424 112.884 66.8809 112.937C63.1101 105.247 55.2114 99.9521 46.076 99.9521C41.4431 99.9521 37.1236 101.319 33.5008 103.671C32.8129 102.835 32.0813 102.051 31.2976 101.311C28.9114 98.9245 25.994 97.0696 22.7283 95.9549C19.9503 94.9186 16.9458 94.3438 13.8107 94.3438C-0.244976 94.3438 -11.6445 105.743 -11.6445 119.799C-11.6445 133.855 -0.244976 145.254 13.8107 145.254C19.8719 145.254 25.4367 143.129 29.8084 139.594C33.9885 143.722 39.7275 146.282 46.076 146.282C53.1997 146.282 59.5744 143.06 63.8242 138C65.2175 138.514 66.7154 138.801 68.283 138.801C72.6634 138.801 76.53 136.624 78.8726 133.297C80.9975 135.814 84.1762 137.417 87.7293 137.417C90.6292 137.417 93.2679 136.345 95.3057 134.586C96.8646 139.141 101.175 142.424 106.261 142.424C108.395 142.424 110.398 141.832 112.113 140.822C113.655 147.44 119.585 152.378 126.674 152.378C134.294 152.378 140.573 146.674 141.505 139.306C142.471 139.507 143.473 139.611 144.501 139.611C150.196 139.611 155.142 136.424 157.668 131.73C159.418 132.122 161.23 132.339 163.102 132.339C176.696 132.339 187.721 121.314 187.721 107.72C187.713 94.1174 176.688 83.0923 163.093 83.0923Z" fill="#FE9A4F"/>
<path d="M163.093 83.0923C155.865 83.0923 149.36 86.21 144.858 91.1739C140.756 95.1972 138.213 100.797 138.213 106.997C138.213 108.33 138.335 109.636 138.561 110.899C133.806 112.954 130.34 117.413 129.661 122.743C128.694 122.542 127.693 122.438 126.665 122.438C122.903 122.438 119.472 123.84 116.842 126.139C115.039 122.081 110.981 119.25 106.261 119.25C103.361 119.25 100.722 120.322 98.6847 122.081C97.1258 117.526 92.8151 114.243 87.7293 114.243C84.1762 114.243 80.9975 115.845 78.8726 118.362C76.5213 115.035 72.6634 112.858 68.283 112.858C67.8127 112.858 67.3424 112.884 66.8809 112.937C63.1101 105.247 55.2114 99.9521 46.076 99.9521C41.4431 99.9521 37.1236 101.319 33.5008 103.671C32.8129 102.835 32.0813 102.051 31.2976 101.311C28.9114 98.9245 25.994 97.0696 22.7283 95.9549C19.9503 94.9186 16.9458 94.3438 13.8107 94.3438C-0.244976 94.3438 -11.6445 105.743 -11.6445 119.799C-11.6445 133.855 -0.244976 145.254 13.8107 145.254C19.8719 145.254 25.4367 143.129 29.8084 139.594C33.9885 143.722 39.7275 146.282 46.076 146.282C53.1997 146.282 59.5744 143.06 63.8242 138C65.2175 138.514 66.7154 138.801 68.283 138.801C72.6634 138.801 76.53 136.624 78.8726 133.297C80.9975 135.814 84.1762 137.417 87.7293 137.417C90.6292 137.417 93.2679 136.345 95.3057 134.586C96.8646 139.141 101.175 142.424 106.261 142.424C108.395 142.424 110.398 141.832 112.113 140.822C113.655 147.44 119.585 152.378 126.674 152.378C134.294 152.378 140.573 146.674 141.505 139.306C142.471 139.507 143.473 139.611 144.501 139.611C150.196 139.611 155.142 136.424 157.668 131.73C159.418 132.122 161.23 132.339 163.102 132.339C176.696 132.339 187.721 121.314 187.721 107.72C187.713 94.1174 176.688 83.0923 163.093 83.0923Z" fill="url(#paint1_linear_1_1335)"/>
<path d="M163.355 145.08L161.596 31.7554H151.563L151.154 57.9247L147.296 55.8608L131.534 38.3478L124.715 44.4873L141.557 63.2021L150.997 68.2357L149.804 145.08H163.355Z" fill="#9E4927"/>
<path opacity="0.61" d="M163.355 145.08L161.596 31.7554H151.563L151.154 57.9247L147.296 55.8608L131.534 38.3478L124.715 44.4873L141.557 63.2021L150.997 68.2357L149.804 145.08H163.355Z" fill="url(#paint2_linear_1_1335)"/>
<path d="M180.894 5.52492C178.316 4.86306 175.686 4.8979 173.309 5.49008C174.746 4.77598 175.878 3.65257 176.392 2.22436C177.506 -0.867191 175.329 -4.16775 171.524 -5.14311C170.862 -5.30857 170.2 -5.39566 169.538 -5.41308C170.749 -6.62357 171.698 -8.05178 172.281 -9.65417C174.65 -16.2117 170.034 -23.2047 161.97 -25.2687C156.797 -26.6011 151.468 -25.5648 147.679 -22.9261C146.817 -26.7143 143.473 -30.0149 138.666 -31.2515C132.169 -32.9235 125.377 -30.1977 123.017 -25.138C119.516 -29.2833 113.786 -31.9917 107.289 -31.9917C96.621 -31.9917 87.9647 -24.6939 87.9647 -15.6979C87.9647 -14.5745 88.0953 -13.4772 88.3566 -12.4235C88.0779 -12.4409 87.8079 -12.4583 87.5292 -12.4583C79.5347 -12.4583 73.0555 -6.98933 73.0555 -0.24888C73.0555 4.50601 76.2864 8.60776 80.9804 10.6282C76.2168 13.1885 73.0555 17.6734 73.0555 22.7941C73.0555 30.7624 80.7191 37.2242 90.1679 37.2242C92.4757 37.2242 94.679 36.8323 96.6907 36.1356C96.4904 36.7365 96.3685 37.3635 96.3685 38.0167C96.3685 41.7788 99.9825 44.8268 104.441 44.8268C106.497 44.8268 108.369 44.1737 109.797 43.1025C108.212 45.0619 107.28 47.4307 107.28 49.9823C107.28 56.7227 113.76 62.1917 121.754 62.1917C129.748 62.1917 136.228 56.7227 136.228 49.9823C136.228 48.9721 136.062 47.9967 135.792 47.0562C139.493 46.5772 142.733 44.9313 144.954 42.5539C147.322 43.9734 150.214 44.8268 153.34 44.8268C161.335 44.8268 167.814 39.3578 167.814 32.6174C167.814 31.1369 167.483 29.7261 166.908 28.4111C168.537 27.427 169.878 26.1207 170.783 24.5532C171.663 24.9886 172.612 25.3544 173.631 25.6156C180.45 27.3661 187.6 24.2919 189.603 18.7446C191.623 13.1885 187.722 7.27534 180.894 5.52492Z" fill="#CC691E"/>
<path d="M180.894 5.52492C178.316 4.86306 175.686 4.8979 173.309 5.49008C174.746 4.77598 175.878 3.65257 176.392 2.22436C177.506 -0.867191 175.329 -4.16775 171.524 -5.14311C170.862 -5.30857 170.2 -5.39566 169.538 -5.41308C170.749 -6.62357 171.698 -8.05178 172.281 -9.65417C174.65 -16.2117 170.034 -23.2047 161.97 -25.2687C156.797 -26.6011 151.468 -25.5648 147.679 -22.9261C146.817 -26.7143 143.473 -30.0149 138.666 -31.2515C132.169 -32.9235 125.377 -30.1977 123.017 -25.138C119.516 -29.2833 113.786 -31.9917 107.289 -31.9917C96.621 -31.9917 87.9647 -24.6939 87.9647 -15.6979C87.9647 -14.5745 88.0953 -13.4772 88.3566 -12.4235C88.0779 -12.4409 87.8079 -12.4583 87.5292 -12.4583C79.5347 -12.4583 73.0555 -6.98933 73.0555 -0.24888C73.0555 4.50601 76.2864 8.60776 80.9804 10.6282C76.2168 13.1885 73.0555 17.6734 73.0555 22.7941C73.0555 30.7624 80.7191 37.2242 90.1679 37.2242C92.4757 37.2242 94.679 36.8323 96.6907 36.1356C96.4904 36.7365 96.3685 37.3635 96.3685 38.0167C96.3685 41.7788 99.9825 44.8268 104.441 44.8268C106.497 44.8268 108.369 44.1737 109.797 43.1025C108.212 45.0619 107.28 47.4307 107.28 49.9823C107.28 56.7227 113.76 62.1917 121.754 62.1917C129.748 62.1917 136.228 56.7227 136.228 49.9823C136.228 48.9721 136.062 47.9967 135.792 47.0562C139.493 46.5772 142.733 44.9313 144.954 42.5539C147.322 43.9734 150.214 44.8268 153.34 44.8268C161.335 44.8268 167.814 39.3578 167.814 32.6174C167.814 31.1369 167.483 29.7261 166.908 28.4111C168.537 27.427 169.878 26.1207 170.783 24.5532C171.663 24.9886 172.612 25.3544 173.631 25.6156C180.45 27.3661 187.6 24.2919 189.603 18.7446C191.623 13.1885 187.722 7.27534 180.894 5.52492Z" fill="url(#paint3_linear_1_1335)"/>
<path d="M39.5447 94.3352L31.437 118.859L26.0812 102.643L18.7224 136.729L51.7628 131.286L39.5447 94.3352Z" fill="#CC691E"/>
<path d="M134.32 122.856L129.853 136.363L121.71 111.726L110.189 146.587H144.204L134.32 122.856Z" fill="#CC691E"/>
<path d="M58.425 118.223C57.6413 118.223 56.8575 118.232 56.0737 118.249C40.0151 118.632 24.3483 123.291 10.4058 131.251L-79.2491 182.449H160.377V179.488L127.876 146.987C109.457 128.569 84.4724 118.223 58.425 118.223Z" fill="#FEC956"/>
<path d="M58.425 118.223C57.6413 118.223 56.8575 118.232 56.0737 118.249C40.0151 118.632 24.3483 123.291 10.4058 131.251L-79.2491 182.449H160.377V179.488L127.876 146.987C109.457 128.569 84.4724 118.223 58.425 118.223Z" fill="url(#paint4_linear_1_1335)"/>
<path d="M151.337 121.82C119.524 152.178 65.2088 159.493 30.6793 160.869C21.4917 161.235 12.3651 162.471 3.43877 164.64L-69.9573 182.449H255.683L190.003 121.341C185.971 117.587 180.92 115.105 175.477 114.208C166.673 112.763 157.79 115.663 151.337 121.82Z" fill="#CE4C52"/>
<path d="M151.337 121.82C119.524 152.178 65.2088 159.493 30.6793 160.869C21.4917 161.235 12.3651 162.471 3.43877 164.64L-69.9573 182.449H255.683L190.003 121.341C185.971 117.587 180.92 115.105 175.477 114.208C166.673 112.763 157.79 115.663 151.337 121.82Z" fill="url(#paint5_linear_1_1335)"/>
<path d="M36.8888 196.321C41.6959 193.5 45.3448 189.781 40.2938 186.333C39.5362 185.819 39.5623 184.704 40.3548 184.234C43.7686 182.222 50.3349 177.459 48.0706 171.667C48.0706 171.667 46.8601 168.802 41.3911 168.585C40.5203 168.55 39.902 167.722 40.1023 166.878C41.0776 162.715 42.889 152.23 37.42 149.312C34.8858 147.963 31.742 148.877 30.1135 151.237C28.9553 152.927 27.7361 155.487 27.379 159.057C27.379 159.057 27.6577 161.496 24.3832 158.744C21.1088 155.992 17.5644 156.645 16.3713 162.044C15.1783 167.444 14.9083 172.991 12.8618 173.801C10.8152 174.611 7.28827 172.547 5.10241 176.414C3.39553 179.435 5.5988 188.266 15.8401 195.442C22.0755 199.822 30.2964 200.188 36.8888 196.321Z" fill="#EB7D41"/>
<rect x="-0.356934" y="114.194" width="177.148" height="51.8135" fill="url(#paint6_linear_1_1335)"/>
<g filter="url(#filter0_b_1_1335)">
<rect x="-0.356812" y="115.186" width="177.148" height="51.8135" fill="white" fill-opacity="0.07"/>
</g>
</g>
<defs>
<filter id="filter0_b_1_1335" x="-20.3568" y="95.1865" width="217.148" height="91.8135" filterUnits="userSpaceOnUse" color-interpolation-filters="sRGB">
<feFlood flood-opacity="0" result="BackgroundImageFix"/>
<feGaussianBlur in="BackgroundImageFix" stdDeviation="10"/>
<feComposite in2="SourceAlpha" operator="in" result="effect1_backgroundBlur_1_1335"/>
<feBlend mode="normal" in="SourceGraphic" in2="effect1_backgroundBlur_1_1335" result="shape"/>
</filter>
<linearGradient id="paint0_linear_1_1335" x1="88.2174" y1="-5.30989e-08" x2="88.2174" y2="317.997" gradientUnits="userSpaceOnUse">
<stop stop-color="#FF7C6B"/>
<stop offset="1" stop-color="#FAC978"/>
</linearGradient>
<linearGradient id="paint1_linear_1_1335" x1="86.5453" y1="71.5035" x2="88.4805" y2="126.464" gradientUnits="userSpaceOnUse">
<stop offset="0.4372" stop-color="#FFF459" stop-opacity="0.53"/>
<stop offset="0.9596" stop-color="#FFF459" stop-opacity="0"/>
</linearGradient>
<linearGradient id="paint2_linear_1_1335" x1="139.734" y1="13.6165" x2="152.07" y2="101.955" gradientUnits="userSpaceOnUse">
<stop stop-color="#040006"/>
<stop offset="1" stop-color="#040006" stop-opacity="0"/>
</linearGradient>
<linearGradient id="paint3_linear_1_1335" x1="51.1802" y1="54.5011" x2="126.387" y2="8.34223" gradientUnits="userSpaceOnUse">
<stop offset="0.4372" stop-color="#FFF459" stop-opacity="0.53"/>
<stop offset="0.9596" stop-color="#FFF459" stop-opacity="0"/>
</linearGradient>
<linearGradient id="paint4_linear_1_1335" x1="37.574" y1="103.981" x2="39.1224" y2="143.848" gradientUnits="userSpaceOnUse">
<stop offset="0.4372" stop-color="#FFE9B1" stop-opacity="0.53"/>
<stop offset="0.9596" stop-color="#FFE9B1" stop-opacity="0"/>
</linearGradient>
<linearGradient id="paint5_linear_1_1335" x1="80.1116" y1="121.446" x2="90.9488" y2="173.31" gradientUnits="userSpaceOnUse">
<stop offset="0.4372" stop-color="#FFF459" stop-opacity="0.53"/>
<stop offset="0.9596" stop-color="#FFF459" stop-opacity="0"/>
</linearGradient>
<linearGradient id="paint6_linear_1_1335" x1="122.814" y1="166.008" x2="122.814" y2="118.592" gradientUnits="userSpaceOnUse">
<stop stop-color="#CC691E"/>
<stop offset="1" stop-color="#BD8022" stop-opacity="0"/>
</linearGradient>
</defs>
</svg>
