<svg width="177" height="210" viewBox="0 0 177 210" fill="none" xmlns="http://www.w3.org/2000/svg">
<mask id="mask0_1_1291" style="mask-type:alpha" maskUnits="userSpaceOnUse" x="0" y="0" width="177" height="210">
<rect x="0.5" width="176.435" height="210" rx="10" fill="url(#paint0_linear_1_1291)"/>
</mask>
<g mask="url(#mask0_1_1291)">
<path d="M183.488 -26.1045H-2.02283V236.266H183.488V-26.1045Z" fill="#4FA4C0"/>
<path d="M183.488 -26.1045H-2.02283V236.266H183.488V-26.1045Z" fill="url(#paint1_linear_1_1291)"/>
<path d="M183.488 -26.1045H-2.02283V236.266H183.488V-26.1045Z" fill="#4FA4C0"/>
<path d="M183.488 -26.1045H-2.02283V236.266H183.488V-26.1045Z" fill="url(#paint2_linear_1_1291)"/>
<path opacity="0.61" d="M58.4466 29.0717C66.6909 29.0717 73.3741 22.3885 73.3741 14.1443C73.3741 5.90004 66.6909 -0.783215 58.4466 -0.783215C50.2024 -0.783215 43.5192 5.90004 43.5192 14.1443C43.5192 22.3885 50.2024 29.0717 58.4466 29.0717Z" fill="white"/>
<path opacity="0.22" d="M172.233 -18.6918C172.063 -18.6918 171.905 -18.6805 171.746 -18.6805C171.531 -18.6805 171.304 -18.6918 171.088 -18.6918C156.592 -18.6238 144.01 -9.48821 138.74 3.24038C136.79 7.71749 135.691 12.648 135.691 17.8392C135.691 30.2051 141.846 41.1428 151.253 47.7508C144.271 50.1764 139.25 56.7844 139.25 64.5938C139.25 70.091 141.732 74.9988 145.643 78.2745C136.802 78.9772 129.831 86.3559 129.831 95.3782C129.831 96.9763 130.069 98.5178 130.477 99.9913C129.117 99.7079 127.7 99.5606 126.261 99.5606C115.833 99.5606 107.23 107.257 105.757 117.276C104.159 116.846 102.481 116.596 100.747 116.596C96.009 116.596 91.6793 118.319 88.3356 121.153C83.5525 113.638 75.165 108.628 65.5874 108.628C62.6404 108.628 59.8068 109.116 57.1545 109.988C58.0953 107.2 58.3787 104.128 57.7099 100.887C56.5198 95.1175 52.3261 90.3797 46.8629 88.1808C43.4852 86.8207 40.2549 86.7073 37.2852 87.2854C38.1353 85.4719 38.634 83.4543 38.634 81.3234C38.634 74.1034 33.1822 68.1642 26.1661 67.3821C27.2429 64.5031 27.855 61.3975 27.855 58.1445C27.855 43.9764 16.7019 32.4493 2.7038 31.7692C5.78677 28.5162 7.69097 24.1298 7.69097 19.3013C7.69097 9.27032 -0.435843 1.14351 -10.4668 1.14351C-20.4978 1.14351 -28.6246 9.27032 -28.6246 19.3013V236.254H208.776V17.8505C208.764 -2.32483 192.409 -18.6918 172.233 -18.6918Z" fill="url(#paint3_linear_1_1291)"/>
<path opacity="0.74" d="M210.124 65.478C208.56 51.6613 197.407 40.7688 183.488 39.5901V39.4767C183.295 39.4994 183.103 39.5221 182.899 39.5447C182.264 39.4994 181.629 39.4767 180.983 39.4767C164.786 39.4767 151.65 52.6134 151.65 68.8103C151.65 75.1916 153.69 81.0968 157.158 85.914C157.419 86.4694 157.691 87.0134 157.986 87.5348C148.737 90.6745 142.083 99.402 142.083 109.705C142.083 109.75 142.095 109.796 142.095 109.852C137.765 106.497 132.324 104.491 126.419 104.491C122.497 104.491 118.791 105.375 115.47 106.939C110.437 96.1377 99.4997 88.6456 86.8051 88.6456C80.3332 88.6456 74.3259 90.5951 69.3161 93.9275C66.3011 89.3257 61.1099 86.2767 55.1933 86.2767C52.1897 86.2767 49.3674 87.0701 46.9192 88.4529C44.913 79 36.5255 71.9046 26.4718 71.9046C25.0663 71.9046 23.6949 72.052 22.3687 72.3126C22.9581 70.2838 23.2982 68.1529 23.2982 65.9313C23.2982 63.3698 22.8561 60.9102 22.0741 58.6206C19.4331 49.7117 11.2043 43.2171 1.434 43.2171C1.28666 43.2171 1.15064 43.2398 1.00329 43.2398C0.855942 43.2398 0.71994 43.2171 0.572592 43.2171C-0.311497 43.2171 -1.17292 43.2738 -2.03434 43.3758V43.5231C-12.2807 45.178 -20.1128 54.0415 -20.1128 64.7526V236.549H210.305V65.2966L210.124 65.478Z" fill="url(#paint4_linear_1_1291)"/>
<path d="M150.686 115.089L119.913 129.45L41.2976 94.0068C28.637 88.2942 13.8455 90.1418 2.97578 98.7899L-2.02272 102.768L-149.099 236.266H331.494L187.659 118.761C184.905 116.506 181.777 114.772 178.411 113.615C169.32 110.498 159.391 111.031 150.686 115.089Z" fill="#A5C0EA"/>
<path d="M178.399 113.615C169.32 110.499 159.391 111.031 150.686 115.089L119.913 129.45L41.2974 94.0069C35.0181 91.1733 28.2174 90.2098 21.6321 91.0033L46.8739 125.449L38.8151 133.813L107.196 197.626L172.482 154.374L157.033 143.051L181.301 114.613L178.399 113.615Z" fill="#92B3EA"/>
<path d="M150.686 115.089L119.913 129.45L41.2976 94.0068C28.637 88.2942 13.8455 90.1418 2.97578 98.7899L-2.02272 102.768L-149.099 236.266H331.494L187.659 118.761C184.905 116.506 181.777 114.772 178.411 113.615C169.32 110.498 159.391 111.031 150.686 115.089Z" fill="url(#paint5_linear_1_1291)"/>
<path d="M125.83 172.566L59.546 147.778C43.5304 141.782 25.9393 141.476 9.70837 146.893C1.94427 149.489 -5.35513 153.343 -11.8724 158.307L-114.336 236.266H281.112L213.196 196.164C193.689 184.648 171.632 178.143 148.998 177.236C141.086 176.918 133.265 175.343 125.83 172.566Z" fill="white"/>
<path d="M149.009 177.236C141.086 176.918 133.265 175.343 125.83 172.566L59.5459 147.778C53.1419 145.386 46.4886 143.913 39.7786 143.335L32.2638 161.107C29.6909 167.182 30.813 174.187 35.1314 179.163L84.697 236.254H281.123L213.207 196.153C193.7 184.649 171.644 178.143 149.009 177.236Z" fill="#CEE0FF"/>
<path d="M125.83 172.566L59.546 147.778C43.5304 141.782 25.9393 141.476 9.70837 146.893C1.94426 149.489 -5.35513 153.343 -11.8724 158.307L-114.336 236.266H281.112L213.196 196.164C193.689 184.648 171.632 178.143 148.998 177.236C141.086 176.918 133.265 175.343 125.83 172.566Z" fill="url(#paint6_linear_1_1291)"/>
<path d="M-14.6039 236.537L8.46173 178.607L36.8772 236.537H-14.6039Z" fill="#2F497C"/>
<path d="M19.0027 236.537L43.2358 168.236L70.4951 236.537H19.0027Z" fill="#2F497C"/>
<path d="M26.4266 171.693L13.9134 196.606H20.17L0.493408 236.537H50.1383L36.7183 204.121L45.2192 206.705L26.4266 171.693Z" fill="#627BB3"/>
<path d="M-4.69774 171.693L-17.2223 196.606H-10.9544L-30.631 236.537H19.0026L5.59394 204.121L14.0835 206.705L-4.69774 171.693Z" fill="#496AAA"/>
<path d="M80.356 182.925L69.9964 203.531H75.1762L58.9113 236.537H99.9533L88.8569 209.731L95.8842 211.874L80.356 182.925Z" fill="#2F79AA"/>
<path d="M58.3219 182.925L47.9735 203.531H53.142L36.8771 236.537H77.9191L66.8227 209.731L73.8501 211.874L58.3219 182.925Z" fill="#496AAA"/>
<path d="M148.046 236.538L164.651 194.861L185.087 236.538H148.046Z" fill="#2F497C"/>
<path d="M172.233 236.538L189.665 187.403L209.274 236.538H172.233Z" fill="#2F497C"/>
<path d="M177.572 189.885L168.561 207.816H173.072L158.915 236.537H194.63L184.973 213.211L191.082 215.081L177.572 189.885Z" fill="#627BB3"/>
<path d="M155.175 189.885L146.164 207.816H150.675L136.518 236.537H172.233L162.576 213.211L168.697 215.081L155.175 189.885Z" fill="#496AAA"/>
<rect x="176.935" y="210" width="177.148" height="51.8135" transform="rotate(-180 176.935 210)" fill="url(#paint7_linear_1_1291)"/>
<g filter="url(#filter0_b_1_1291)">
<rect x="0.0205078" y="158.093" width="177.148" height="51.8135" fill="#8DA5EA" fill-opacity="0.11"/>
</g>
</g>
<defs>
<filter id="filter0_b_1_1291" x="-19.9795" y="138.093" width="217.148" height="91.8135" filterUnits="userSpaceOnUse" color-interpolation-filters="sRGB">
<feFlood flood-opacity="0" result="BackgroundImageFix"/>
<feGaussianBlur in="BackgroundImageFix" stdDeviation="10"/>
<feComposite in2="SourceAlpha" operator="in" result="effect1_backgroundBlur_1_1291"/>
<feBlend mode="normal" in="SourceGraphic" in2="effect1_backgroundBlur_1_1291" result="shape"/>
</filter>
<linearGradient id="paint0_linear_1_1291" x1="88.7174" y1="61.0854" x2="88.7174" y2="318.787" gradientUnits="userSpaceOnUse">
<stop stop-color="#67548B"/>
<stop offset="1" stop-color="#EDC59F"/>
</linearGradient>
<linearGradient id="paint1_linear_1_1291" x1="91.375" y1="-87.1862" x2="90.7032" y2="114.315" gradientUnits="userSpaceOnUse">
<stop offset="0.4372" stop-color="#9477FF" stop-opacity="0.53"/>
<stop offset="0.9596" stop-color="#9477FF" stop-opacity="0"/>
</linearGradient>
<linearGradient id="paint2_linear_1_1291" x1="90.7327" y1="-1.38576" x2="90.7327" y2="110.619" gradientUnits="userSpaceOnUse">
<stop stop-color="#7F88ED"/>
<stop offset="0.9596" stop-color="#96B0ED"/>
</linearGradient>
<linearGradient id="paint3_linear_1_1291" x1="87.3273" y1="-71.5405" x2="90.9619" y2="191.609" gradientUnits="userSpaceOnUse">
<stop stop-color="white"/>
<stop offset="1" stop-color="white" stop-opacity="0"/>
</linearGradient>
<linearGradient id="paint4_linear_1_1291" x1="93.3099" y1="44.538" x2="96.0071" y2="203.68" gradientUnits="userSpaceOnUse">
<stop stop-color="white"/>
<stop offset="1" stop-color="white" stop-opacity="0"/>
</linearGradient>
<linearGradient id="paint5_linear_1_1291" x1="91.1975" y1="65.2121" x2="92.1841" y2="164.083" gradientUnits="userSpaceOnUse">
<stop stop-color="#5B5FB3" stop-opacity="0.53"/>
<stop offset="0.9596" stop-color="#7E5AFF" stop-opacity="0"/>
</linearGradient>
<linearGradient id="paint6_linear_1_1291" x1="78.4412" y1="236.266" x2="83.388" y2="137.864" gradientUnits="userSpaceOnUse">
<stop offset="0.4372" stop-color="#4198F4" stop-opacity="0.53"/>
<stop offset="0.9596" stop-color="#4AA2FF" stop-opacity="0"/>
</linearGradient>
<linearGradient id="paint7_linear_1_1291" x1="267.751" y1="210" x2="265.509" y2="261.814" gradientUnits="userSpaceOnUse">
<stop stop-color="#3B4982"/>
<stop offset="1" stop-color="#2745C1" stop-opacity="0"/>
</linearGradient>
</defs>
</svg>
