<svg width="177" height="210" viewBox="0 0 177 210" fill="none" xmlns="http://www.w3.org/2000/svg">
<mask id="mask0_1_1193" style="mask-type:alpha" maskUnits="userSpaceOnUse" x="0" y="0" width="177" height="210">
<rect width="176.435" height="210" rx="10" fill="url(#paint0_linear_1_1193)"/>
</mask>
<g mask="url(#mask0_1_1193)">
<path d="M177.254 -21.3516H-0.405762V229.914H177.254V-21.3516Z" fill="#F6EECA"/>
<path d="M177.254 -71.3516H-0.405762V179.914H177.254V-71.3516Z" fill="url(#paint1_linear_1_1193)"/>
<path d="M135.802 26.6278C137.245 17.7396 131.209 9.36489 122.32 7.92239C113.432 6.47989 105.058 12.5158 103.615 21.404C102.173 30.2922 108.208 38.6669 117.097 40.1094C125.985 41.5519 134.36 35.516 135.802 26.6278Z" fill="#FBAD82"/>
<path d="M89.2873 36.2329C89.9712 36.1678 90.655 36.1678 91.3171 36.222C92.0227 30.9358 96.2669 26.6156 101.803 26.0511C106.72 25.5518 111.225 28.157 113.407 32.2709C113.689 32.2275 113.982 32.1841 114.275 32.1515C121.276 31.4459 127.518 36.5477 128.223 43.5381C128.875 50.0184 124.554 55.8474 118.356 57.2368L118.346 57.3345H117.879C117.531 57.3997 117.184 57.4539 116.837 57.4865C115.61 57.6059 91.4257 57.3671 91.4257 57.3671C85.5858 57.9533 80.3756 53.6982 79.7894 47.8692C79.1924 42.0402 83.4475 36.819 89.2873 36.2329Z" fill="url(#paint2_linear_1_1193)"/>
<path d="M180.955 19.0172C169.71 20.081 160.57 29.0145 159.192 40.2274C158.79 43.549 159.072 46.7511 159.908 49.7362C149.097 50.1161 140.445 58.9736 140.445 69.8826C140.445 72.3684 140.912 74.7347 141.737 76.9274C136.386 77.5244 132.228 82.0617 132.228 87.565C132.228 89.1933 132.608 90.7346 133.249 92.1132C130.98 91.679 128.516 91.7658 125.943 92.797C121.775 94.4687 118.573 98.0942 117.661 102.49C117.151 104.954 117.368 107.31 118.085 109.427C116.055 108.754 113.895 108.384 111.648 108.384C104.342 108.384 97.949 112.205 94.2909 117.937C91.7401 115.766 88.4294 114.452 84.8147 114.452C83.4904 114.452 82.2096 114.648 80.9939 114.973C79.8758 107.332 73.3087 101.448 65.3521 101.448C64.245 101.448 63.1703 101.557 62.1391 101.774C62.4539 100.656 62.6276 99.4727 62.6276 98.257C62.6276 91.3751 57.3088 85.7414 50.568 85.2096C53.5422 82.713 55.4417 78.9681 55.4417 74.7781C55.4417 68.0807 50.6114 62.5231 44.2396 61.3834C52.2939 56.8135 57.7647 48.184 57.8407 38.2844C57.9601 23.5871 45.857 11.3104 31.1488 11.2344C25.83 11.2127 20.8802 12.7432 16.712 15.3809C12.2072 6.25205 2.82873 -0.0437143 -8.03688 -0.0762786C-23.3095 -0.119698 -35.8033 13.0688 -35.8033 28.3415V189.502H207.604V43.2016C207.615 29.0036 195.436 17.6604 180.955 19.0172Z" fill="url(#paint3_linear_1_1193)"/>
<path d="M185.992 96.835C184.049 92.4714 181.042 88.6614 177.254 85.7523C172.684 85.9802 168.689 88.9653 167.191 93.3289L154.817 129.53C153.384 133.73 147.707 134.382 145.351 130.615C142.714 126.393 138.035 123.885 133.064 124.037C127.908 124.189 123.262 127.174 120.961 131.787L111.235 154.897L88.0275 131.69C84.0112 127.673 78.5621 125.416 72.8851 125.416C69.6721 125.416 66.6002 126.696 64.3207 128.965C59.588 133.698 51.9246 133.698 47.2027 128.965L35.6533 117.416C32.1255 113.888 27.3277 111.901 22.3345 111.901C16.0496 111.901 10.188 115.028 6.69278 120.249L-66.9133 224.574L241.807 219.439L185.992 96.835Z" fill="#F6E6A4"/>
<path d="M51.1975 145.812C51.0129 145.812 50.8284 145.812 50.6439 145.812C25.3631 145.931 1.15704 156.048 -17.079 173.546L-101.724 254.728H169.797C164.662 193.725 113.525 145.812 51.1975 145.812Z" fill="#ADB010"/>
<path d="M51.1975 145.812C51.0129 145.812 50.8284 145.812 50.6439 145.812C25.3631 145.931 1.15704 156.048 -17.079 173.546L-101.724 254.728H169.797C164.662 193.725 113.525 145.812 51.1975 145.812Z" fill="url(#paint4_linear_1_1193)"/>
<path d="M150.454 60.7755C151.995 58.2138 152.592 55.2395 152.353 52.2545C152.321 51.842 152.299 51.4187 152.299 50.9953C152.299 42.9628 158.15 36.45 165.368 36.45C172.587 36.45 178.437 42.9628 178.437 50.9953C178.437 51.4187 178.416 51.842 178.383 52.2545C178.144 55.2395 178.741 58.2029 180.283 60.7755C182.182 63.9451 183.29 67.7442 183.29 71.8365C183.29 82.8541 175.257 91.7875 165.357 91.7875C155.447 91.7875 147.425 82.8541 147.425 71.8365C147.447 67.7442 148.554 63.9451 150.454 60.7755Z" fill="#CACB68"/>
<path d="M150.454 60.7755C151.995 58.2138 152.592 55.2395 152.353 52.2545C152.321 51.842 152.299 51.4187 152.299 50.9953C152.299 42.9628 158.15 36.45 165.368 36.45C172.587 36.45 178.437 42.9628 178.437 50.9953C178.437 51.4187 178.416 51.842 178.383 52.2545C178.144 55.2395 178.741 58.2029 180.283 60.7755C182.182 63.9451 183.29 67.7442 183.29 71.8365C183.29 82.8541 175.257 91.7875 165.357 91.7875C155.447 91.7875 147.425 82.8541 147.425 71.8365C147.447 67.7442 148.554 63.9451 150.454 60.7755Z" fill="url(#paint5_linear_1_1193)"/>
<path d="M173.553 70.6317C173.422 70.5557 173.281 70.5123 173.129 70.5123C172.847 70.5123 172.587 70.6534 172.435 70.9031L167.561 78.903L166.182 81.1608V78.5122V49.8014C166.182 49.3564 165.824 48.9982 165.379 48.9982C164.934 48.9982 164.576 49.3564 164.576 49.8014V60.1786V62.8271L163.197 60.5693L161.699 58.1053C161.547 57.8665 161.298 57.7145 161.005 57.7145C160.853 57.7145 160.712 57.7579 160.581 57.8339C160.201 58.0619 160.082 58.5612 160.31 58.9411L164.402 65.6602L164.446 65.7253L164.565 65.9099V66.127V78.2952V80.9437L163.186 78.6859L158.443 70.8922C158.291 70.6534 158.041 70.5014 157.748 70.5014C157.596 70.5014 157.455 70.5449 157.325 70.6208C156.945 70.8488 156.826 71.3481 157.053 71.728L164.196 83.4403C164.228 83.4946 164.272 83.5597 164.326 83.6031L164.554 83.8202V84.135V120.965H166.171V84.2544V83.8853L166.465 83.6574C166.562 83.5814 166.627 83.5163 166.671 83.4512L173.813 71.7389C174.052 71.359 173.933 70.8596 173.553 70.6317Z" fill="#4B766F"/>
<path d="M83.8708 139.462C84.3376 138.68 84.5221 137.768 84.457 136.857C84.4461 136.726 84.4461 136.607 84.4461 136.477C84.4461 134.023 86.2372 132.037 88.4407 132.037C90.6442 132.037 92.4352 134.023 92.4352 136.477C92.4352 136.607 92.4352 136.737 92.4244 136.857C92.3484 137.768 92.5329 138.669 93.0105 139.462C93.5967 140.428 93.9332 141.589 93.9332 142.838C93.9332 146.203 91.48 148.927 88.4515 148.927C85.423 148.927 82.9699 146.203 82.9699 142.838C82.9482 141.589 83.2847 140.428 83.8708 139.462Z" fill="#CACB68"/>
<path d="M90.9264 142.469C90.883 142.447 90.8395 142.436 90.7961 142.436C90.7093 142.436 90.6333 142.479 90.5899 142.555L89.1028 144.998L88.6794 145.692V144.889V136.119C88.6794 135.977 88.5709 135.869 88.4298 135.869C88.2887 135.869 88.1801 135.977 88.1801 136.119V139.288V140.091L87.7568 139.397L87.3009 138.648C87.2575 138.572 87.1815 138.528 87.0946 138.528C87.0512 138.528 87.0078 138.539 86.9644 138.561C86.845 138.637 86.8124 138.789 86.8775 138.897L88.1258 140.949L88.1367 140.971L88.1693 141.025V141.09V144.802V145.606L87.7459 144.911L86.2914 142.534C86.248 142.458 86.172 142.414 86.0852 142.414C86.0417 142.414 85.9983 142.425 85.9549 142.447C85.8355 142.523 85.8029 142.675 85.8681 142.783L88.0499 146.365C88.0607 146.387 88.0716 146.398 88.0933 146.42L88.1584 146.485V146.582V157.828H88.6469V146.615V146.507L88.7337 146.441C88.7663 146.42 88.788 146.398 88.7988 146.376L90.9806 142.794C91.0783 142.696 91.0349 142.545 90.9264 142.469Z" fill="#4B766F"/>
<path d="M-3.45588 148.916C-2.27271 146.951 -1.8168 144.683 -2.00133 142.403C-2.02304 142.088 -2.03391 141.763 -2.03391 141.437C-2.03391 135.293 2.43826 130.311 7.96333 130.311C13.4884 130.311 17.9606 135.293 17.9606 141.437C17.9606 141.763 17.9497 142.078 17.928 142.403C17.7435 144.683 18.1994 146.951 19.3825 148.916C20.8371 151.337 21.6837 154.246 21.6837 157.383C21.6837 165.806 15.54 172.645 7.96333 172.645C0.386712 172.645 -5.75708 165.817 -5.75708 157.383C-5.75708 154.257 -4.91041 151.348 -3.45588 148.916Z" fill="#CACB68"/>
<path d="M-3.45588 148.916C-2.27271 146.951 -1.8168 144.683 -2.00133 142.403C-2.02304 142.088 -2.03391 141.763 -2.03391 141.437C-2.03391 135.293 2.43826 130.311 7.96333 130.311C13.4884 130.311 17.9606 135.293 17.9606 141.437C17.9606 141.763 17.9497 142.078 17.928 142.403C17.7435 144.683 18.1994 146.951 19.3825 148.916C20.8371 151.337 21.6837 154.246 21.6837 157.383C21.6837 165.806 15.54 172.645 7.96333 172.645C0.386712 172.645 -5.75708 165.817 -5.75708 157.383C-5.75708 154.257 -4.91041 151.348 -3.45588 148.916Z" fill="url(#paint6_linear_1_1193)"/>
<path d="M14.2155 156.46C14.1178 156.406 14.0092 156.373 13.8898 156.373C13.6727 156.373 13.4773 156.482 13.3579 156.667L9.6239 162.789L8.57099 164.515V162.496V140.536C8.57099 140.2 8.28877 139.918 7.95227 139.918C7.61577 139.918 7.33355 140.2 7.33355 140.536V148.471V150.49L6.28064 148.764L5.13003 146.876C5.02149 146.691 4.81524 146.582 4.59815 146.582C4.4896 146.582 4.3702 146.615 4.27251 146.669C3.97943 146.843 3.89259 147.223 4.06626 147.516L7.20329 152.65L7.23585 152.705L7.32269 152.846V153.008V162.322V164.341L6.26978 162.615L2.63344 156.656C2.52489 156.471 2.31865 156.363 2.10156 156.363C1.99301 156.363 1.8736 156.395 1.77591 156.449C1.48283 156.623 1.396 157.003 1.56968 157.296L7.02962 166.262C7.06218 166.306 7.09474 166.349 7.12731 166.392L7.30099 166.555V166.794V194.962H8.53843V166.87V166.588L8.75552 166.414C8.8315 166.36 8.87492 166.306 8.90749 166.251L14.3674 157.285C14.5954 157.014 14.5085 156.634 14.2155 156.46Z" fill="#146357"/>
<path d="M186.329 104.281C178.687 104.281 171.251 107.147 165.824 112.531C165.791 112.564 165.759 112.596 165.726 112.629L149.129 129.226C140.608 137.747 129.048 142.458 116.999 142.49C105.037 142.523 93.5638 147.288 85.0971 155.755L68.0117 172.84C59.5232 181.328 48.0063 186.105 36.001 186.105H14.6931C4.79356 186.105 -4.92145 188.71 -13.4859 193.67L-119.092 254.728H328.938L219.533 115.711C213.856 108.493 205.172 104.281 195.989 104.281H186.329Z" fill="#D3D265"/>
<path d="M186.329 104.281C178.687 104.281 171.251 107.147 165.824 112.531C165.791 112.564 165.759 112.596 165.726 112.629L149.129 129.226C140.608 137.747 129.048 142.458 116.999 142.49C105.037 142.523 93.5638 147.288 85.0971 155.755L68.0117 172.84C59.5232 181.328 48.0063 186.105 36.001 186.105H14.6931C4.79356 186.105 -4.92145 188.71 -13.4859 193.67L-119.092 254.728H328.938L219.533 115.711C213.856 108.493 205.172 104.281 195.989 104.281H186.329Z" fill="#D3D265"/>
<path d="M-7.93905 231.182C-7.93905 231.182 -13.3881 220.283 -4.36784 216.539C-4.36784 216.539 1.1898 214.259 6.47606 218.959V214.78C6.26982 198.758 23.3444 185.689 34.0906 191.801C44.8476 197.912 37.6726 213.369 37.6726 213.369C44.4243 206.693 51.7947 209.722 51.7947 209.722C62.9642 214.357 56.2234 227.849 56.2234 227.849C75.8271 221.944 74.3509 245.141 74.3509 245.141H32.2235H6.45436H-22.5713C-22.5713 245.152 -23.7653 226.416 -7.93905 231.182Z" fill="#6E700A"/>
<path d="M171.924 186.197C171.892 184.775 171.588 183.277 170.6 182.267C169.873 181.518 168.852 181.117 167.843 180.889C164.966 180.238 161.819 180.845 159.387 182.517C157.933 183.516 156.543 184.948 154.774 184.916C152.462 184.883 151.061 182.474 149.857 180.498C147.501 176.655 143.528 173.171 139.045 173.627C136.321 173.898 133.857 175.668 132.435 178.001C131.013 180.335 130.568 183.19 130.861 185.915C131.089 187.977 131.718 190.007 131.751 192.08C131.805 195.944 129.808 199.505 128.788 203.239C127.767 206.973 128.158 211.738 131.523 213.648C134.617 215.407 138.72 213.866 141.943 215.374C142.475 215.624 143.029 216.069 142.975 216.655C142.91 217.383 142.019 217.643 141.314 217.828C136.136 219.13 132.815 225.361 134.627 230.387C136.201 234.761 140.619 237.355 144.798 239.407C150.584 242.262 156.608 244.823 162.98 245.811C169.352 246.81 176.169 246.137 181.726 242.859C187.186 239.635 191.007 234.207 193.851 228.541C195.599 225.057 197.075 221.269 196.836 217.383C196.597 213.497 194.253 209.502 190.508 208.427C186.448 207.255 182.312 209.654 178.144 210.294C179.197 208.102 178.806 205.301 177.2 203.478C175.713 201.784 173.325 201.079 171.143 201.524C169.515 201.849 166.877 203.651 166.649 200.905C166.475 198.777 168.907 196.335 169.797 194.566C171.099 191.972 172 189.138 171.924 186.197Z" fill="#6E700A"/>
<path d="M178.872 240.264L178.85 240.242C176.82 238.126 174.823 235.911 172.88 233.664C171.545 232.112 170.22 230.549 168.929 228.975C169.026 228.899 169.113 228.812 169.211 228.726C169.45 228.498 169.678 228.248 169.873 227.987C170.285 227.466 170.622 226.902 170.915 226.294C171.49 225.1 172.001 223.863 172.446 222.593C172.88 221.323 173.227 219.998 173.433 218.641C173.65 217.295 173.726 215.884 173.542 214.495C173.488 214.082 173.184 213.724 172.75 213.627C172.196 213.496 171.642 213.844 171.512 214.397L171.501 214.43C171.219 215.613 170.872 216.753 170.47 217.903C170.264 218.468 170.047 219.043 169.819 219.608C169.58 220.172 169.341 220.736 169.102 221.301C168.614 222.43 168.093 223.548 167.539 224.666C167.268 225.23 167.029 225.806 166.855 226.424C163.252 221.92 159.724 217.361 156.424 212.628C155.089 210.728 153.765 208.818 152.462 206.907C152.484 206.875 152.516 206.842 152.538 206.81C152.777 206.517 152.961 206.224 153.146 205.931C153.493 205.334 153.765 204.715 153.982 204.085C154.394 202.815 154.741 201.545 155.002 200.243C155.273 198.951 155.48 197.638 155.599 196.324C155.729 195.011 155.762 193.676 155.664 192.351C155.642 192.004 155.393 191.7 155.045 191.613C154.6 191.505 154.155 191.765 154.047 192.21V192.221L153.113 195.912C152.798 197.127 152.462 198.343 152.125 199.559C151.767 200.764 151.42 201.969 151.04 203.152C150.921 203.542 150.823 203.944 150.725 204.346C149.477 202.468 148.25 200.568 147.056 198.658C147.013 198.354 146.85 198.093 146.6 197.931C146.579 197.898 146.557 197.865 146.535 197.833C143.344 192.829 140.402 187.662 137.461 182.495L137.45 182.473C137.233 182.093 136.766 181.952 136.375 182.159C135.974 182.365 135.822 182.853 136.028 183.255L138.079 187.25C138.774 188.574 139.436 189.92 140.185 191.211C141.379 193.306 142.541 195.423 143.778 197.496C143.453 197.431 143.138 197.355 142.812 197.268C142.258 197.127 141.705 196.965 141.151 196.802C140.598 196.628 140.044 196.454 139.512 196.259H139.501C139.045 196.096 138.535 196.324 138.362 196.78C138.177 197.247 138.405 197.768 138.872 197.952C139.447 198.18 140.001 198.376 140.576 198.571C141.151 198.766 141.727 198.951 142.313 199.125C142.899 199.298 143.496 199.45 144.104 199.581C144.44 199.646 144.777 199.711 145.135 199.754C145.754 200.785 146.372 201.817 147.024 202.826L149.466 206.593C150.269 207.863 151.127 209.089 151.963 210.327C152.82 211.553 153.623 212.812 154.524 214.017L155.632 215.548C155.002 215.472 154.383 215.439 153.754 215.374L152.527 215.298L151.29 215.244C150.465 215.222 149.64 215.201 148.804 215.233H148.782C148.391 215.255 148.022 215.494 147.86 215.884C147.642 216.416 147.903 217.024 148.435 217.241C149.238 217.567 150.063 217.806 150.877 218.012C151.702 218.218 152.538 218.381 153.363 218.511C154.199 218.62 155.035 218.772 155.87 218.793C156.543 218.815 157.216 218.783 157.911 218.663L159.865 221.225C160.766 222.43 161.71 223.58 162.644 224.753C163.566 225.936 164.532 227.076 165.499 228.226C169.363 232.818 173.347 237.268 177.732 241.415C178.047 241.708 178.546 241.708 178.85 241.415C179.165 241.111 179.176 240.59 178.872 240.264Z" fill="#CACB68"/>
<path d="M9.01629 58.6153C13.2062 63.4891 22.0963 62.7076 22.0963 62.7076C22.0963 62.7076 24.1912 54.0346 20.0013 49.1609C15.8114 44.2871 6.92132 45.0686 6.92132 45.0686C6.92132 45.0686 4.82636 53.7416 9.01629 58.6153Z" fill="#CACB68"/>
</g>
<defs>
<linearGradient id="paint0_linear_1_1193" x1="88.2174" y1="61.0854" x2="88.2174" y2="318.787" gradientUnits="userSpaceOnUse">
<stop stop-color="#67548B"/>
<stop offset="1" stop-color="#EDC59F"/>
</linearGradient>
<linearGradient id="paint1_linear_1_1193" x1="88.4242" y1="-55.8501" x2="88.4242" y2="123.023" gradientUnits="userSpaceOnUse">
<stop offset="0.33755" stop-color="#D6F7DE"/>
<stop offset="0.596419" stop-color="#E0F4D7"/>
<stop offset="0.9596" stop-color="#B9FFEF" stop-opacity="0"/>
</linearGradient>
<linearGradient id="paint2_linear_1_1193" x1="105.13" y1="20.2498" x2="102.718" y2="75.2474" gradientUnits="userSpaceOnUse">
<stop stop-color="white"/>
<stop offset="1" stop-color="white" stop-opacity="0"/>
</linearGradient>
<linearGradient id="paint3_linear_1_1193" x1="79.7063" y1="-4.62138" x2="90.001" y2="195.557" gradientUnits="userSpaceOnUse">
<stop stop-color="white"/>
<stop offset="1" stop-color="white" stop-opacity="0"/>
</linearGradient>
<linearGradient id="paint4_linear_1_1193" x1="28.599" y1="126.964" x2="31.1719" y2="187.429" gradientUnits="userSpaceOnUse">
<stop offset="0.4372" stop-color="#FFF459" stop-opacity="0.53"/>
<stop offset="0.9596" stop-color="#FFF459" stop-opacity="0"/>
</linearGradient>
<linearGradient id="paint5_linear_1_1193" x1="164.485" y1="36.0575" x2="165.45" y2="74.6522" gradientUnits="userSpaceOnUse">
<stop offset="0.4372" stop-color="#FFF459" stop-opacity="0.53"/>
<stop offset="0.9596" stop-color="#FFF459" stop-opacity="0"/>
</linearGradient>
<linearGradient id="paint6_linear_1_1193" x1="7.9629" y1="125.205" x2="7.9629" y2="159.458" gradientUnits="userSpaceOnUse">
<stop offset="0.4372" stop-color="#FFF459" stop-opacity="0.53"/>
<stop offset="0.9596" stop-color="#FFF459" stop-opacity="0"/>
</linearGradient>
</defs>
</svg>
