<svg width="177" height="167" viewBox="0 0 177 167" fill="none" xmlns="http://www.w3.org/2000/svg">
<mask id="mask0_1_1237" style="mask-type:alpha" maskUnits="userSpaceOnUse" x="0" y="0" width="177" height="167">
<rect width="176.435" height="167" rx="10" fill="url(#paint0_linear_1_1237)"/>
</mask>
<g mask="url(#mask0_1_1237)">
<path d="M176.859 -100.455H-0.192139V149.95H176.859V-100.455Z" fill="#DEFDED"/>
<path d="M163.164 10.5656L11.6312 18.1487L52.2944 28.6418L-0.192383 36.0194V71.7498H176.859V-15.31L80.8312 -4.44916L163.164 10.5656Z" fill="#C7FDE2"/>
<path d="M176.859 -100.455H-0.192139V149.95H176.859V-100.455Z" fill="url(#paint1_linear_1_1237)"/>
<path opacity="0.51" d="M173.949 -5.68228C163.964 -5.68228 154.38 -1.71224 147.316 5.35163L133.48 19.1873C127.812 24.8557 120.11 28.0469 112.094 28.0469H104.424C87.5381 28.0469 71.3551 34.7538 59.4125 46.6964L58.3307 47.7781L57.2489 46.6964C45.3064 34.7538 29.1233 28.0469 12.2371 28.0469H4.56741C-6.45569 28.0469 -16.4403 34.5591 -20.8755 44.6518L-34.5381 75.7415H30.3565H86.3049H248.157L199.543 7.50433C193.648 -0.771104 184.117 -5.68228 173.949 -5.68228Z" fill="#9DEFB6"/>
<path d="M122.561 74.4354C125.307 57.3592 113.691 41.2897 96.6146 38.5431C79.5385 35.7966 63.469 47.413 60.7224 64.4891C57.9758 81.5653 69.5922 97.6348 86.6684 100.381C103.745 103.128 119.814 91.5115 122.561 74.4354Z" fill="#FFDA8C"/>
<path d="M171.753 41.0495C168.291 41.0495 165.046 41.9582 162.233 43.5375C159.67 44.8357 157.409 46.6422 155.602 48.849C152.725 46.4475 149.025 45.0087 144.99 45.0087C138.997 45.0087 133.751 48.1891 130.83 52.9488C128.969 51.4127 126.6 50.4932 124.004 50.4932C118.292 50.4932 113.63 54.9393 113.273 60.5644H128.418H134.724H150.983H152.249C152.249 71.3387 160.979 80.0685 171.753 80.0685C182.527 80.0685 191.257 71.3387 191.257 60.5644C191.246 49.7793 182.516 41.0495 171.753 41.0495Z" fill="url(#paint2_linear_1_1237)"/>
<path d="M55.2909 54.0956C53.4303 54.0956 51.6779 54.5607 50.1309 55.3612C47.0804 48.7409 40.406 44.1326 32.639 44.1326C29.6208 44.1326 26.765 44.8465 24.2229 46.0906C23.7902 44.7816 23.2493 43.5268 22.6219 42.3261C18.1218 32.547 8.24535 25.7535 -3.22127 25.7535C-18.9284 25.7535 -31.6606 38.4858 -31.6606 54.1929C-31.6606 69.9 -18.9284 82.6323 -3.22127 82.6323C4.59983 82.6323 11.6853 79.4736 16.8237 74.3569C20.2961 79.3654 26.0727 82.6647 32.639 82.6647C39.2593 82.6647 45.1008 79.3221 48.5624 74.227C50.4338 75.6333 52.7596 76.4879 55.2801 76.4879C61.4569 76.4879 66.4763 71.4794 66.4763 65.2917C66.4763 59.1041 61.4678 54.0956 55.2909 54.0956Z" fill="url(#paint3_linear_1_1237)"/>
<path d="M176.859 60.4561H-0.192383V149.939H176.859V60.4561Z" fill="#6AF8E4"/>
<path opacity="0.69" d="M21.8751 110.141C22.8379 109.817 105.214 82.6646 105.214 82.6646L120.596 117.389L21.8751 110.141Z" fill="#B2F8EE"/>
<path d="M176.858 105.295V83.7678L133.339 65.7349L176.858 105.295Z" fill="#40EBD2"/>
<path d="M-0.192383 60.4561V71.0032L98.8749 60.4561H-0.192383Z" fill="#40EBD2"/>
<path d="M176.858 72.9503V60.4561H133.339L176.858 72.9503Z" fill="#40EBD2"/>
<path d="M-0.192627 99.8211L98.8746 71.7495L-0.192627 83.6164V99.8211Z" fill="#40EBD2"/>
<path d="M176.859 60.4561H-0.192383V114.804H176.859V60.4561Z" fill="url(#paint4_linear_1_1237)"/>
<path d="M176.858 149.95H-0.192627V95.5374H44.9383C54.9553 95.5374 64.8858 97.4196 74.2214 101.076C83.5461 104.743 93.4767 106.615 103.505 106.615H176.869V149.95H176.858Z" fill="#FDC88B"/>
<path d="M176.858 149.95H-0.192627V95.5374H44.9383C54.9553 95.5374 64.8858 97.4196 74.2214 101.076C83.5461 104.743 93.4767 106.615 103.505 106.615H176.869V149.95H176.858Z" fill="url(#paint5_linear_1_1237)"/>
<path d="M103.494 106.615C93.4767 106.615 83.5461 104.732 74.2106 101.076C64.8858 97.4088 54.9553 95.5374 44.9274 95.5374H-0.192627V98.5663H44.9383C54.9553 98.5663 64.8858 100.449 74.2214 104.105C83.5461 107.772 93.4767 109.643 103.505 109.643H176.869V106.615H103.494Z" fill="url(#paint6_linear_1_1237)"/>
<g opacity="0.12">
<path opacity="0.12" d="M37.1168 107.372H20.6633C19.8953 107.372 19.2787 106.744 19.2787 105.987C19.2787 105.23 19.8953 104.603 20.6633 104.603H37.1277C37.8957 104.603 38.5123 105.23 38.5123 105.987C38.5123 106.744 37.8849 107.372 37.1168 107.372Z" fill="#5F4122"/>
<path opacity="0.12" d="M60.6342 118.795H40.8814C40.1133 118.795 39.4967 118.168 39.4967 117.411C39.4967 116.643 40.1133 116.026 40.8814 116.026H60.6342C61.4023 116.026 62.0189 116.653 62.0189 117.411C62.0297 118.168 61.4023 118.795 60.6342 118.795Z" fill="#5F4122"/>
<path opacity="0.12" d="M112.602 121.748H107.777C107.009 121.748 106.393 121.121 106.393 120.364C106.393 119.596 107.009 118.979 107.777 118.979H112.602C113.37 118.979 113.987 119.607 113.987 120.364C113.998 121.132 113.37 121.748 112.602 121.748Z" fill="#5F4122"/>
<path opacity="0.12" d="M130.559 115.095H122.803C122.035 115.095 121.418 114.468 121.418 113.711C121.418 112.954 122.035 112.326 122.803 112.326H130.559C131.327 112.326 131.944 112.954 131.944 113.711C131.944 114.468 131.327 115.095 130.559 115.095Z" fill="#5F4122"/>
<path opacity="0.12" d="M37.0954 129.137H14.054C13.2859 129.137 12.6693 128.51 12.6693 127.752C12.6693 126.995 13.2859 126.368 14.054 126.368H37.0954C37.8634 126.368 38.48 126.995 38.48 127.752C38.48 128.51 37.8634 129.137 37.0954 129.137Z" fill="#5F4122"/>
</g>
<path d="M163.109 147.116C165.186 136.785 166.43 123.544 166.43 109.092C166.43 76.0982 159.929 49.3464 151.913 49.3464C143.897 49.3464 137.396 76.0982 137.396 109.092C137.396 123.533 138.64 136.785 140.717 147.116H163.109Z" fill="#7A55B7"/>
<path d="M165.543 129.602C166.116 123.209 166.419 116.307 166.419 109.103C166.419 107.772 166.408 106.452 166.387 105.143H137.406C137.385 106.452 137.374 107.772 137.374 109.103C137.374 116.307 137.688 123.209 138.25 129.602H165.543Z" fill="#ECE7FF"/>
<path d="M151.567 49.3787V147.126H152.248V49.3787C152.14 49.3679 152.021 49.3571 151.902 49.3571C151.794 49.3571 151.675 49.3679 151.567 49.3787Z" fill="#4A1971"/>
<path d="M80.571 135.076C84.4004 135.076 87.9053 136.439 90.653 138.699C94.9584 131.668 102.715 126.984 111.563 126.984C117.524 126.984 122.987 129.115 127.238 132.663C132.787 125.913 141.203 121.597 150.626 121.597C166.7 121.597 179.833 134.124 180.828 149.95H136.033H120.423H96.4187H87.1048H64.7233C65.2425 141.653 72.1333 135.076 80.571 135.076Z" fill="#6E7015"/>
<path d="M80.571 135.076C84.4004 135.076 87.9053 136.439 90.653 138.699C94.9584 131.668 102.715 126.984 111.563 126.984C117.524 126.984 122.987 129.115 127.238 132.663C132.787 125.913 141.203 121.597 150.626 121.597C166.7 121.597 179.833 134.124 180.828 149.95H136.033H120.423H96.4187H87.1048H64.7233C65.2425 141.653 72.1333 135.076 80.571 135.076Z" fill="url(#paint7_linear_1_1237)"/>
<path d="M63.0471 138.581C60.1156 138.581 57.4436 139.63 55.345 141.35C52.0565 135.974 46.1285 132.393 39.3675 132.393C34.8133 132.393 30.6377 134.027 27.3816 136.731C26.3756 135.509 25.2506 134.394 24.0174 133.399L30.7892 120.353L19.2252 130.414C18.0569 129.873 16.8345 129.429 15.5689 129.083L30.7784 109.492L8.47254 127.969L26.354 84.493L-0.203148 124.68V130.435C-7.69972 133.918 -13.0328 141.274 -13.5845 149.939H-0.203148H15.4174H20.6639H32.5849H50.9315H58.0494H75.1412C74.7517 143.6 69.4944 138.581 63.0471 138.581Z" fill="#50520F"/>
<path opacity="0.64" d="M63.0471 138.581C60.1156 138.581 57.4436 139.63 55.345 141.35C52.0565 135.974 46.1285 132.393 39.3675 132.393C34.8133 132.393 30.6377 134.027 27.3816 136.731C26.3756 135.509 25.2506 134.394 24.0174 133.399L30.7892 120.353L19.2252 130.414C18.0569 129.873 16.8345 129.429 15.5689 129.083L30.7784 109.492L8.47254 127.969L26.354 84.493L-0.203148 124.68V130.435C-7.69972 133.918 -13.0328 141.274 -13.5845 149.939H-0.203148H15.4174H20.6639H32.5849H50.9315H58.0494H75.1412C74.7517 143.6 69.4944 138.581 63.0471 138.581Z" fill="url(#paint8_linear_1_1237)"/>
</g>
<defs>
<linearGradient id="paint0_linear_1_1237" x1="88.2174" y1="-5.30989e-08" x2="88.2174" y2="317.997" gradientUnits="userSpaceOnUse">
<stop stop-color="#FF7C6B"/>
<stop offset="1" stop-color="#FAC978"/>
</linearGradient>
<linearGradient id="paint1_linear_1_1237" x1="87.6263" y1="156.545" x2="88.5878" y2="-22.7861" gradientUnits="userSpaceOnUse">
<stop offset="0.4372" stop-color="#DAEDA3"/>
<stop offset="0.9596" stop-color="#8CFFAF" stop-opacity="0"/>
</linearGradient>
<linearGradient id="paint2_linear_1_1237" x1="152.085" y1="42.2552" x2="152.775" y2="115.429" gradientUnits="userSpaceOnUse">
<stop stop-color="white"/>
<stop offset="1" stop-color="white" stop-opacity="0"/>
</linearGradient>
<linearGradient id="paint3_linear_1_1237" x1="17.1054" y1="27.0687" x2="18.1184" y2="134.457" gradientUnits="userSpaceOnUse">
<stop stop-color="white"/>
<stop offset="1" stop-color="white" stop-opacity="0"/>
</linearGradient>
<linearGradient id="paint4_linear_1_1237" x1="87.3228" y1="54.6407" x2="88.8422" y2="104.277" gradientUnits="userSpaceOnUse">
<stop offset="0.4372" stop-color="white" stop-opacity="0.53"/>
<stop offset="0.9596" stop-color="white" stop-opacity="0"/>
</linearGradient>
<linearGradient id="paint5_linear_1_1237" x1="86.4536" y1="86.4761" x2="88.3767" y2="129.266" gradientUnits="userSpaceOnUse">
<stop offset="0.1372" stop-color="#FFF456" stop-opacity="0.53"/>
<stop offset="0.4372" stop-color="#FFF456" stop-opacity="0.53"/>
<stop offset="0.9596" stop-color="#FFF456" stop-opacity="0"/>
</linearGradient>
<linearGradient id="paint6_linear_1_1237" x1="92.3963" y1="41.0028" x2="84.0627" y2="167.288" gradientUnits="userSpaceOnUse">
<stop offset="0.1372" stop-color="#FFFBC0" stop-opacity="0.53"/>
<stop offset="0.4372" stop-color="#FFFBC0" stop-opacity="0.53"/>
<stop offset="0.9596" stop-color="#FFFBC0" stop-opacity="0"/>
</linearGradient>
<linearGradient id="paint7_linear_1_1237" x1="122.77" y1="107.576" x2="122.77" y2="147" gradientUnits="userSpaceOnUse">
<stop offset="0.4372" stop-color="#FFF456" stop-opacity="0.53"/>
<stop offset="0.9596" stop-color="#FFF456" stop-opacity="0"/>
</linearGradient>
<linearGradient id="paint8_linear_1_1237" x1="48.4" y1="91.7636" x2="32.5343" y2="143.207" gradientUnits="userSpaceOnUse">
<stop offset="0.4372" stop-color="#FFF456" stop-opacity="0.53"/>
<stop offset="0.9596" stop-color="#FFF456" stop-opacity="0"/>
</linearGradient>
</defs>
</svg>
