<svg width="333" height="243" viewBox="0 0 333 243" fill="none" xmlns="http://www.w3.org/2000/svg">
<path d="M170.242 240.597C209.468 240.597 241.267 239.357 241.267 237.827C241.267 236.297 209.468 235.057 170.242 235.057C131.015 235.057 99.2156 236.297 99.2156 237.827C99.2156 239.357 131.015 240.597 170.242 240.597Z" fill="#F9F0E3"/>
<path opacity="0.5" d="M45.2815 235.93C70.1822 235.93 90.3682 234.396 90.3682 232.505C90.3682 230.614 70.1822 229.081 45.2815 229.081C20.3808 229.081 0.194824 230.614 0.194824 232.505C0.194824 234.396 20.3808 235.93 45.2815 235.93Z" fill="#F9EAD4"/>
<path d="M328.659 240.604C328.659 241.76 313.31 242.691 294.373 242.691C275.437 242.691 260.088 241.76 260.088 240.604C260.088 239.448 275.437 238.518 294.373 238.518C313.303 238.518 328.659 239.448 328.659 240.604Z" fill="#F9F0E3"/>
<path d="M245.568 74.824L243.984 77.5575H247.144L245.568 74.824Z" fill="#E7CCA8"/>
<path d="M245.568 79.8403L243.984 82.5739H247.144L245.568 79.8403Z" fill="#E7CCA8"/>
<path d="M248.844 76.8814L247.376 79.8403H250.304L248.844 76.8814Z" fill="#E7CCA8"/>
<path d="M7.61843 91.1307L6.03491 93.8716H9.19468L7.61843 91.1307Z" fill="#E7CCA8"/>
<path d="M7.61843 96.1472L6.03491 98.8808H9.19468L7.61843 96.1472Z" fill="#E7CCA8"/>
<path d="M10.8945 93.1883L9.42725 96.1472H12.3546L10.8945 93.1883Z" fill="#E7CCA8"/>
<path d="M242.408 195.9L240.832 198.634H243.984L242.408 195.9Z" fill="#E7CCA8"/>
<path d="M242.408 200.909L240.832 203.65H243.984L242.408 200.909Z" fill="#E7CCA8"/>
<path d="M245.684 197.951L244.224 200.909H247.144L245.684 197.951Z" fill="#E7CCA8"/>
<path d="M180.142 55.5074C180.142 57.434 178.588 58.9898 176.663 58.9898C174.738 58.9898 173.183 57.434 173.183 55.5074C173.183 53.5808 174.738 52.025 176.663 52.025C178.58 52.025 180.142 53.5881 180.142 55.5074Z" stroke="white" stroke-miterlimit="10"/>
<path d="M330.482 203.636H258.374C257.306 203.636 256.442 202.771 256.442 201.702C256.442 200.633 257.306 199.768 258.374 199.768H330.482C331.55 199.768 332.414 200.633 332.414 201.702C332.414 202.771 331.55 203.636 330.482 203.636Z" fill="#FEE6C6"/>
<path d="M268.333 237.827C267.25 237.827 266.357 237.165 266.313 236.322L264.439 202.443H272.226L270.352 236.322C270.301 237.165 269.415 237.827 268.333 237.827Z" fill="#FEE6C6"/>
<path d="M321.221 237.827C320.138 237.827 319.245 237.165 319.201 236.322L317.327 202.443H325.114L323.24 236.322C323.189 237.165 322.303 237.827 321.221 237.827Z" fill="#FEE6C6"/>
<path d="M294.432 237.827C293.349 237.827 292.456 237.165 292.412 236.322L290.538 202.443H298.325L296.451 236.322C296.407 237.165 295.514 237.827 294.432 237.827Z" fill="#FEE6C6"/>
<path d="M310.608 192.997C311.646 188.366 308.736 183.77 304.109 182.732C299.482 181.693 294.89 184.606 293.852 189.237C292.815 193.868 295.724 198.464 300.352 199.502C304.979 200.541 309.571 197.628 310.608 192.997Z" fill="#F9D8AC"/>
<path d="M306.555 184.057H297.7C297.206 184.057 296.807 183.657 296.807 183.163C296.807 182.669 297.206 182.269 297.7 182.269H306.555C307.049 182.269 307.448 182.669 307.448 183.163C307.448 183.657 307.049 184.057 306.555 184.057Z" fill="#F9D8AC"/>
<path d="M298.311 167.99C298.623 168.136 298.993 168.688 299.117 169.451C299.24 170.215 299.08 170.869 298.819 171.095C298.514 170.956 298.136 170.397 298.013 169.633C297.889 168.87 298.071 168.223 298.311 167.99Z" fill="#F9D8AC"/>
<path d="M298.892 171.019L298.713 171.049L299.518 175.948L299.697 175.919L298.892 171.019Z" fill="#F9D8AC"/>
<path d="M300.889 170.884C300.555 170.862 300.003 171.174 299.596 171.792C299.189 172.418 299.081 173.079 299.219 173.414C299.545 173.443 300.105 173.123 300.512 172.505C300.926 171.887 301.013 171.218 300.889 170.884Z" fill="#F9D8AC"/>
<path d="M296.792 171.56C297.105 171.429 297.722 171.545 298.311 172.003C298.899 172.461 299.211 173.057 299.189 173.421C298.892 173.559 298.26 173.435 297.671 172.977C297.083 172.519 296.785 171.916 296.792 171.56Z" fill="#F9D8AC"/>
<path d="M297.185 173.959C297.497 173.828 298.114 173.952 298.703 174.402C299.291 174.86 299.603 175.457 299.582 175.82C299.284 175.958 298.652 175.835 298.063 175.377C297.475 174.919 297.177 174.315 297.185 173.959Z" fill="#F9D8AC"/>
<path d="M301.289 173.29C300.954 173.268 300.402 173.581 299.996 174.199C299.589 174.817 299.48 175.485 299.618 175.82C299.945 175.849 300.504 175.529 300.911 174.911C301.318 174.286 301.412 173.617 301.289 173.29Z" fill="#F9D8AC"/>
<path d="M299.676 175.811L299.497 175.84L300.302 180.74L300.481 180.71L299.676 175.811Z" fill="#F9D8AC"/>
<path d="M301.681 175.675C301.347 175.653 300.795 175.966 300.388 176.584C299.981 177.209 299.872 177.87 300.01 178.205C300.337 178.234 300.896 177.921 301.303 177.296C301.71 176.678 301.804 176.009 301.681 175.675Z" fill="#F9D8AC"/>
<path d="M297.577 176.351C297.889 176.22 298.507 176.336 299.095 176.794C299.683 177.252 299.996 177.849 299.974 178.212C299.676 178.35 299.044 178.227 298.456 177.769C297.867 177.311 297.57 176.707 297.577 176.351Z" fill="#F9D8AC"/>
<path d="M297.976 178.757C298.289 178.626 298.906 178.75 299.495 179.201C300.083 179.659 300.395 180.255 300.374 180.619C300.076 180.757 299.444 180.633 298.855 180.175C298.267 179.717 297.962 179.106 297.976 178.757Z" fill="#F9D8AC"/>
<path d="M302.073 178.081C301.739 178.059 301.187 178.372 300.78 178.99C300.374 179.608 300.265 180.277 300.403 180.611C300.729 180.64 301.289 180.32 301.696 179.702C302.11 179.084 302.197 178.408 302.073 178.081Z" fill="#F9D8AC"/>
<path d="M300.467 180.601L300.288 180.63L301.093 185.53L301.272 185.5L300.467 180.601Z" fill="#F9D8AC"/>
<path d="M305.996 171.531C306.243 171.749 306.417 172.316 306.293 172.978C306.17 173.639 305.814 174.119 305.494 174.221C305.247 174.01 305.073 173.436 305.189 172.774C305.32 172.12 305.691 171.647 305.996 171.531Z" fill="#F9D8AC"/>
<path d="M305.419 174.176L304.638 178.423L304.817 178.456L305.597 174.209L305.419 174.176Z" fill="#F9D8AC"/>
<path d="M307.521 174.715C307.209 174.592 306.599 174.672 306.01 175.042C305.429 175.421 305.117 175.929 305.146 176.242C305.444 176.373 306.068 176.286 306.657 175.915C307.238 175.537 307.528 175.021 307.521 174.715Z" fill="#F9D8AC"/>
<path d="M303.432 173.959C303.766 173.952 304.31 174.243 304.724 174.803C305.139 175.362 305.247 175.951 305.109 176.235C304.783 176.249 304.231 175.951 303.817 175.391C303.402 174.832 303.315 174.243 303.432 173.959Z" fill="#F9D8AC"/>
<path d="M303.054 176.046C303.388 176.038 303.933 176.329 304.347 176.889C304.761 177.449 304.87 178.038 304.732 178.321C304.405 178.336 303.853 178.038 303.439 177.478C303.025 176.918 302.93 176.329 303.054 176.046Z" fill="#F9D8AC"/>
<path d="M307.136 176.794C306.824 176.671 306.214 176.751 305.625 177.122C305.044 177.5 304.732 178.008 304.761 178.321C305.059 178.452 305.683 178.365 306.272 177.994C306.853 177.623 307.151 177.1 307.136 176.794Z" fill="#F9D8AC"/>
<path d="M304.66 178.332L303.879 182.579L304.058 182.612L304.838 178.364L304.66 178.332Z" fill="#F9D8AC"/>
<path d="M306.758 178.866C306.446 178.743 305.836 178.823 305.247 179.193C304.666 179.571 304.354 180.08 304.383 180.393C304.681 180.524 305.306 180.437 305.894 180.066C306.475 179.695 306.766 179.179 306.758 178.866Z" fill="#F9D8AC"/>
<path d="M302.669 178.118C303.003 178.11 303.548 178.401 303.962 178.961C304.376 179.521 304.485 180.11 304.347 180.393C304.02 180.408 303.468 180.11 303.054 179.55C302.64 178.99 302.553 178.401 302.669 178.118Z" fill="#F9D8AC"/>
<path d="M303.891 182.484L303.111 186.731L303.289 186.764L304.07 182.517L303.891 182.484Z" fill="#F9D8AC"/>
<path d="M312.083 130.338C312.461 130.578 312.86 131.342 312.904 132.352C312.954 133.355 312.642 134.177 312.279 134.431C311.901 134.213 311.502 133.428 311.451 132.418C311.407 131.414 311.741 130.607 312.083 130.338Z" fill="#FEE6C6"/>
<path d="M312.394 134.336L312.155 134.348L312.467 140.803L312.706 140.791L312.394 134.336Z" fill="#FEE6C6"/>
<path d="M314.988 134.468C314.56 134.388 313.804 134.708 313.18 135.45C312.555 136.191 312.322 137.042 312.453 137.492C312.875 137.587 313.637 137.252 314.262 136.511C314.879 135.769 315.097 134.919 314.988 134.468Z" fill="#FEE6C6"/>
<path d="M309.591 134.73C310.013 134.613 310.797 134.853 311.487 135.529C312.177 136.206 312.497 137.027 312.41 137.492C312.003 137.623 311.204 137.369 310.514 136.693C309.816 136.017 309.519 135.188 309.591 134.73Z" fill="#FEE6C6"/>
<path d="M309.744 137.892C310.165 137.776 310.949 138.016 311.64 138.692C312.33 139.368 312.649 140.189 312.562 140.655C312.155 140.786 311.356 140.531 310.666 139.855C309.969 139.179 309.678 138.35 309.744 137.892Z" fill="#FEE6C6"/>
<path d="M315.141 137.63C314.712 137.55 313.957 137.87 313.332 138.612C312.707 139.353 312.475 140.204 312.606 140.655C313.027 140.749 313.79 140.415 314.414 139.673C315.032 138.932 315.25 138.081 315.141 137.63Z" fill="#FEE6C6"/>
<path d="M312.687 140.682L312.448 140.693L312.759 147.149L312.998 147.137L312.687 140.682Z" fill="#FEE6C6"/>
<path d="M315.293 140.785C314.865 140.705 314.109 141.025 313.485 141.767C312.86 142.508 312.628 143.359 312.758 143.81C313.18 143.904 313.942 143.57 314.567 142.828C315.184 142.087 315.402 141.229 315.293 140.785Z" fill="#FEE6C6"/>
<path d="M309.896 141.047C310.318 140.931 311.102 141.171 311.792 141.847C312.482 142.523 312.802 143.344 312.715 143.81C312.308 143.941 311.509 143.686 310.819 143.01C310.121 142.327 309.824 141.498 309.896 141.047Z" fill="#FEE6C6"/>
<path d="M310.049 144.21C310.47 144.093 311.255 144.333 311.945 145.009C312.635 145.685 312.954 146.507 312.867 146.972C312.46 147.103 311.661 146.849 310.971 146.173C310.274 145.496 309.976 144.668 310.049 144.21Z" fill="#FEE6C6"/>
<path d="M315.446 143.948C315.017 143.868 314.262 144.188 313.637 144.929C313.013 145.671 312.78 146.522 312.911 146.972C313.332 147.067 314.095 146.732 314.72 145.991C315.337 145.249 315.555 144.399 315.446 143.948Z" fill="#FEE6C6"/>
<path d="M313.005 146.971L312.766 146.983L313.078 153.438L313.317 153.426L313.005 146.971Z" fill="#FEE6C6"/>
<path d="M317.502 199.681H310.746C308.051 199.681 305.923 197.376 306.141 194.686L309.649 151.538H318.591L322.1 194.686C322.325 197.376 320.196 199.681 317.502 199.681Z" fill="#FEE6C6"/>
<path d="M319.514 151.669H308.734C308.102 151.669 307.594 151.16 307.594 150.527C307.594 149.895 308.102 149.386 308.734 149.386H319.514C320.146 149.386 320.654 149.895 320.654 150.527C320.654 151.153 320.146 151.669 319.514 151.669Z" fill="#FEE6C6"/>
<path d="M315.475 160.226C315.577 156.605 315.758 152.985 315.947 149.372C316.136 145.758 316.39 142.145 316.615 138.532C316.891 134.919 317.138 131.305 317.451 127.7L317.93 122.291C318.119 120.488 318.279 118.685 318.482 116.882C318.439 118.692 318.351 120.502 318.286 122.312L318.01 127.736C317.821 131.349 317.567 134.962 317.342 138.576C317.058 142.189 316.819 145.802 316.506 149.408C316.194 153.014 315.874 156.62 315.475 160.226Z" fill="#FEE6C6"/>
<path d="M315.816 156.082C315.271 148.848 315.061 141.607 314.93 134.366C314.828 127.125 314.814 119.884 315.133 112.636C315.678 119.869 315.889 127.11 316.02 134.352C316.114 141.593 316.129 148.834 315.816 156.082Z" fill="#FEE6C6"/>
<path d="M314.894 162.872C315.344 159.273 315.867 155.689 316.412 152.112C316.949 148.528 317.552 144.959 318.119 141.382C318.744 137.812 319.339 134.242 319.993 130.68L320.988 125.337C321.344 123.563 321.678 121.782 322.056 120.008C321.838 121.803 321.577 123.599 321.337 125.395L320.545 130.767C320.008 134.352 319.405 137.921 318.838 141.498C318.213 145.068 317.618 148.637 316.964 152.2C316.303 155.769 315.642 159.324 314.894 162.872Z" fill="#FEE6C6"/>
<path d="M313.557 112.745C313.557 113.167 313.216 113.508 312.795 113.508C312.373 113.508 312.032 113.167 312.032 112.745C312.032 112.323 312.373 111.981 312.795 111.981C313.216 111.981 313.557 112.323 313.557 112.745Z" stroke="#FEE6C6" stroke-miterlimit="10"/>
<path d="M317.647 110.876C318.658 110.876 319.477 110.056 319.477 109.044C319.477 108.033 318.658 107.212 317.647 107.212C316.636 107.212 315.816 108.033 315.816 109.044C315.816 110.056 316.636 110.876 317.647 110.876Z" stroke="#FEE6C6" stroke-miterlimit="10"/>
<path d="M321.33 118.481C321.663 118.481 321.932 118.211 321.932 117.877C321.932 117.544 321.663 117.274 321.33 117.274C320.997 117.274 320.727 117.544 320.727 117.877C320.727 118.211 320.997 118.481 321.33 118.481Z" stroke="#FEE6C6" stroke-miterlimit="10"/>
<path d="M323.393 130.906C323.393 131.218 323.138 131.473 322.826 131.473C322.514 131.473 322.259 131.218 322.259 130.906C322.259 130.593 322.514 130.339 322.826 130.339C323.138 130.339 323.393 130.593 323.393 130.906Z" stroke="#FEE6C6" stroke-miterlimit="10"/>
<path d="M308.894 126.115C309.439 126.115 309.882 125.672 309.882 125.126C309.882 124.58 309.439 124.137 308.894 124.137C308.348 124.137 307.906 124.58 307.906 125.126C307.906 125.672 308.348 126.115 308.894 126.115Z" stroke="#FEE6C6" stroke-miterlimit="10"/>
<path d="M285.163 171.095H259.986V198.547H285.163V171.095Z" fill="#F9D8AC"/>
<path d="M282.344 174.17H262.812V195.471H282.344V174.17Z" fill="#FEE6C6"/>
<path d="M31.5457 45.8306H27.4924V225.213H31.5457V45.8306Z" fill="#FEE6C6"/>
<path d="M50.199 231.764H8.84595C8.84595 227.336 18.1074 223.752 29.5261 223.752C40.9449 223.752 50.199 227.336 50.199 231.764Z" fill="#FEE6C6"/>
<path d="M57.9642 48.2953H1.07373L2.12699 44.6021L2.33764 43.8751L4.24803 37.1866L4.45868 36.4596L14.875 0H45.6157L54.9352 36.4596L55.124 37.1866L56.831 43.8751L57.0199 44.6021L57.9642 48.2953Z" fill="#FEE6C6"/>
<path d="M4.80737 38.8223L2.86792 42.181H6.73955L4.80737 38.8223Z" fill="#E5CAA6"/>
<path d="M9.19458 42.181L7.25513 38.8223H11.134L9.19458 42.181Z" fill="#E5CAA6"/>
<path d="M13.0662 38.8223L11.134 42.181H15.0057L13.0662 38.8223Z" fill="#E5CAA6"/>
<path d="M17.4609 42.181L15.5215 38.8223H19.3931L17.4609 42.181Z" fill="#E5CAA6"/>
<path d="M21.3325 38.8223L19.3931 42.181H23.2647L21.3325 38.8223Z" fill="#E5CAA6"/>
<path d="M25.72 42.181L23.7805 38.8223H27.6594L25.72 42.181Z" fill="#E5CAA6"/>
<path d="M29.5916 38.8223L27.6594 42.181H31.5311L29.5916 38.8223Z" fill="#E5CAA6"/>
<path d="M33.9788 42.181L32.0466 38.8223H35.9183L33.9788 42.181Z" fill="#E5CAA6"/>
<path d="M37.8579 38.8223L35.9185 42.181H39.7901L37.8579 38.8223Z" fill="#E5CAA6"/>
<path d="M42.2451 42.181L40.3057 38.8223H44.1773L42.2451 42.181Z" fill="#E5CAA6"/>
<path d="M46.1169 38.8223L44.1775 42.181H48.0564L46.1169 38.8223Z" fill="#E5CAA6"/>
<path d="M50.5042 42.181L48.572 38.8223H52.4436L50.5042 42.181Z" fill="#E5CAA6"/>
<path d="M54.3758 38.8223L52.4436 42.181H56.3152L54.3758 38.8223Z" fill="#E5CAA6"/>
<path d="M55.124 37.1865H4.24805L4.4587 36.4595H54.9352L55.124 37.1865Z" fill="#E5CAA6"/>
<path d="M57.0199 44.6021H2.12695L2.3376 43.8751H56.831L57.0199 44.6021Z" fill="#E5CAA6"/>
<path d="M64.3848 154.707C65.8666 148.964 69.0555 143.831 72.3315 138.887C75.237 134.496 78.2806 130.127 82.1159 126.521C85.9512 122.908 90.6799 120.065 95.8809 119.265C94.6097 123.366 93.3385 127.466 92.0673 131.566C90.7962 135.667 89.4814 139.854 86.9754 143.337C84.3531 146.972 80.5541 149.632 76.5009 151.537C72.4404 153.442 68.0966 154.642 63.7747 155.834" fill="#66A986"/>
<path d="M64.6541 154.781C66.8406 147.009 71.5911 139.942 76.3853 133.523C78.8622 130.2 81.5862 127.074 84.884 124.552C86.4457 123.352 94.4141 118.067 95.2059 120.56C95.5546 121.665 93.6224 125.657 93.2955 126.711C92.6853 128.681 92.0897 130.651 91.465 132.614C90.2955 136.3 89.0244 140.03 86.7508 143.199C81.4046 150.622 72.0778 153.261 63.7098 155.573C63.3757 155.668 63.5137 156.191 63.8551 156.097C72.0342 153.836 80.9106 151.291 86.4965 144.413C92.0098 137.63 93.6296 127.467 96.1502 119.339C96.2156 119.128 96.0049 118.968 95.8161 119.004C87.9493 120.444 81.8549 125.613 77.039 131.771C71.7291 138.561 66.4846 146.267 64.1311 154.643C64.0295 154.97 64.5525 155.115 64.6541 154.781Z" fill="#66A986"/>
<path d="M55.6689 174.01C61.4074 161.738 67.1385 149.459 72.877 137.187C73.1748 136.554 72.2305 136.002 71.9327 136.634C66.1942 148.906 60.4631 161.186 54.7246 173.457C54.4341 174.09 55.3711 174.643 55.6689 174.01Z" fill="#80B996"/>
<path d="M56.497 147.598C56.8312 134.737 61.6834 121.738 64.9158 109.372C65.003 109.03 64.48 108.884 64.3928 109.226C61.1459 121.658 56.2937 134.664 55.9595 147.598C55.945 147.947 56.4898 147.947 56.497 147.598Z" fill="#80B996"/>
<path d="M47.8383 150.288C42.3614 145.417 36.8409 140.495 32.5479 134.548C28.2623 128.601 25.2478 121.469 25.4875 114.141C28.9814 119.688 36.3614 121.76 40.0006 127.212C41.1992 129.008 41.9183 131.08 42.6229 133.123C44.5987 138.845 46.5817 144.573 48.5575 150.295" fill="#66A986"/>
<path d="M48.0272 150.099C42.2815 144.988 36.4414 139.812 32.0758 133.414C29.9039 130.23 28.1243 126.747 27.0057 123.054C26.4246 121.135 26.0323 119.172 25.8434 117.18C25.6836 115.464 25.1752 114.846 26.4463 115.9C28.2478 117.398 29.795 119.012 31.7272 120.379C34.3785 122.247 37.1823 123.999 39.1799 126.609C41.7585 129.975 42.8045 134.512 44.1774 138.481C45.5503 142.443 46.9159 146.406 48.2887 150.368C48.405 150.695 48.9279 150.557 48.8117 150.222C47.2863 145.817 45.7682 141.418 44.2428 137.013C43.0442 133.537 42.1072 129.706 39.9353 126.674C36.1581 121.396 29.4027 119.39 25.7127 113.995C25.5674 113.777 25.2042 113.85 25.2042 114.134C25.088 129.735 36.8336 140.858 47.635 150.477C47.9037 150.717 48.296 150.331 48.0272 150.099Z" fill="#66A986"/>
<path d="M37.1897 123.556C46.146 141.811 52.0297 161.375 54.6229 181.549C54.7101 182.233 55.7997 182.247 55.7125 181.549C53.0975 161.178 47.1775 141.447 38.1267 123.003C37.8217 122.37 36.8774 122.923 37.1897 123.556Z" fill="#80B996"/>
<path d="M53.3512 107.197C48.8694 91.4715 49.0002 74.4595 53.7289 58.7997C57.0195 63.5325 59.54 68.8034 61.1671 74.3286C62.9831 80.4864 63.6877 87.0368 62.6199 93.369C61.5521 99.7013 58.632 105.801 53.9469 110.185" fill="#66A986"/>
<path d="M53.6133 107.125C51.3179 98.8226 50.1847 90.2657 50.3808 81.6506C50.4898 77.0341 50.9547 72.4321 51.7973 67.8883C52.1605 65.9327 52.5963 63.9915 53.0903 62.065C53.9401 58.7861 54.5358 60.4074 55.7997 62.5884C64.204 77.0414 66.6664 97.3468 53.744 109.997C53.4898 110.244 53.8748 110.629 54.129 110.382C68.4533 96.3581 64.1676 73.7408 53.9547 58.6625C53.8239 58.4735 53.5261 58.4953 53.4535 58.728C48.7973 74.5986 48.6738 91.3271 53.0757 107.27C53.1847 107.605 53.7077 107.46 53.6133 107.125Z" fill="#66A986"/>
<path d="M66.0272 150.288C64.8359 142.378 67.3782 134.264 71.4968 127.409C75.6154 120.553 81.2449 114.751 86.8236 109.022C88.1819 119.942 85.8647 131.291 80.3369 140.8C78.8188 143.417 77.0174 145.94 74.6058 147.765C72.1942 149.59 69.0852 150.666 66.1143 150.128" fill="#80B996"/>
<path d="M66.3032 150.288C65.2645 142.022 67.7487 134.024 72.0635 127.009C74.2571 123.446 76.8721 120.168 79.6397 117.034C80.8963 115.617 82.1893 114.221 83.4968 112.847C84.0561 112.258 84.6081 111.516 85.2473 111.022C86.228 110.266 86.1045 109.735 86.7292 110.84C87.3248 111.88 86.9253 114.541 86.9108 115.726C86.889 117.558 86.7728 119.39 86.5621 121.215C86.0827 125.228 85.1311 129.212 83.7074 132.999C80.8963 140.495 75.6155 150.942 66.0998 149.859C65.7512 149.822 65.7584 150.368 66.0998 150.404C74.8165 151.4 79.9883 142.959 83.0464 136.038C86.8091 127.54 88.1093 118.234 87.0778 109.023C87.056 108.804 86.7945 108.645 86.6129 108.826C75.6736 120.08 63.6083 133.319 65.7439 150.288C65.802 150.629 66.3468 150.637 66.3032 150.288Z" fill="#80B996"/>
<path d="M57.5567 136.147C56.8812 126.477 58.8279 116.764 62.0095 107.604C65.1911 98.4437 69.5929 89.7705 73.9803 81.1191C76.8931 91.0137 77.8229 101.65 75.3677 111.668C72.9125 121.686 66.8472 131.007 57.9781 136.256" fill="#80B996"/>
<path d="M57.8334 136.147C57.2596 126.18 59.1917 116.387 62.5113 107.023C64.2764 102.043 66.3975 97.1941 68.6711 92.4249C69.7606 90.1275 70.8938 87.852 72.0342 85.5837C72.165 85.322 73.3199 82.4794 73.5959 82.4939C74.5112 82.5303 74.5693 84.3042 74.7582 85.0966C79.1528 103.701 75.1286 125.38 57.8407 136.024C57.5428 136.205 57.8189 136.678 58.1167 136.496C77.0899 124.82 79.8937 100.895 74.2497 81.0472C74.1916 80.829 73.8574 80.7636 73.7485 80.9817C65.0101 98.2191 56.1409 116.285 57.2886 136.147C57.3104 136.496 57.8552 136.504 57.8334 136.147Z" fill="#80B996"/>
<path d="M51.6811 101.331C56.0322 126.682 56.7949 152.483 53.9838 178.052C53.9039 178.75 55.0007 178.743 55.0733 178.052C57.8917 152.389 57.0927 126.485 52.7344 101.04C52.6109 100.349 51.5649 100.64 51.6811 101.331Z" fill="#80B996"/>
<path d="M53.4961 109.596C49.3194 106.106 45.6802 100.181 44.6996 94.8305C43.719 89.4797 44.0096 83.9762 44.3437 78.5454C44.6851 73.1147 45.0701 67.633 44.2856 62.2458C48.3606 67.7348 51.7891 73.7035 54.484 79.9922C56.5252 84.7541 58.1595 89.7777 58.3411 94.9541C58.5227 100.13 57.1281 105.51 53.7068 109.4" fill="#80B996"/>
<path d="M53.6931 109.408C46.9377 103.446 44.3445 95.5582 44.3082 86.7251C44.2936 82.632 44.6641 78.5535 44.8675 74.4749C44.9692 72.432 45.0418 70.3891 45.0128 68.3462C45.0055 67.7573 44.4462 63.6425 44.8094 63.4244C46.1169 62.6392 55.3637 82.8137 55.8795 84.2968C58.7705 92.5775 59.3952 102.05 53.5187 109.212C53.3008 109.481 53.6785 109.866 53.9037 109.597C65.5477 95.4056 53.4824 74.3804 44.5188 62.1157C44.3808 61.9267 43.974 61.9558 44.0103 62.2539C45.2234 71.7704 43.1605 81.2725 43.9087 90.7963C44.4898 98.2191 47.6931 104.849 53.3008 109.793C53.5696 110.026 53.9546 109.64 53.6931 109.408Z" fill="#80B996"/>
<path d="M47.3582 146.928C49.4647 139.52 48.2226 129.422 44.6924 122.573C41.1621 115.732 35.6634 110.069 29.5618 105.372C29.8959 113.267 30.5061 121.272 33.1356 128.724C35.7724 136.183 40.305 143.373 47.3582 146.928Z" fill="#80B996"/>
<path d="M47.6204 147.002C52.0223 130.128 42.6083 115.246 29.7586 105.184C29.5915 105.053 29.2792 105.118 29.2937 105.38C29.962 120.466 32.4026 139.23 47.2209 147.169C47.5332 147.336 47.802 146.863 47.4969 146.696C40.7633 143.09 36.4413 136.685 33.7755 129.67C32.4026 126.056 31.5237 122.269 30.9426 118.452C30.5503 115.864 30.3034 113.261 30.1218 110.651C30.0637 109.8 29.8966 108.863 29.962 108.012C30.0564 106.776 29.5843 106.42 30.8046 106.703C32.0322 106.987 34.037 109.466 34.9305 110.317C36.2525 111.574 37.5164 112.897 38.7077 114.279C41.3662 117.361 43.7124 120.793 45.3032 124.551C48.2378 131.458 49.0005 139.579 47.0974 146.856C47.0102 147.198 47.5332 147.343 47.6204 147.002Z" fill="#80B996"/>
<path d="M78.1432 204.835C78.1432 217.136 73.3709 227.853 66.3177 233.429H44.0758C37.0226 227.853 32.2502 217.136 32.2502 204.835C32.2502 193.341 36.4197 183.229 42.7174 177.398H67.6688C73.9738 183.229 78.1432 193.334 78.1432 204.835Z" fill="#FEE6C6"/>
<path d="M44.853 189.27L38.8821 199.63H50.8311L44.853 189.27Z" stroke="#E6CAA6" stroke-miterlimit="10"/>
<path d="M44.853 191.8L41.0613 198.372H48.6447L44.853 191.8Z" stroke="#E6CAA6" stroke-width="0.5" stroke-miterlimit="10"/>
<path d="M53.4825 223.287L46.2622 227.46V219.121L53.4825 223.287Z" stroke="#E6CAA6" stroke-width="0.75" stroke-miterlimit="10"/>
<path d="M51.0854 223.287L47.4607 225.381V221.193L51.0854 223.287Z" stroke="#E6CAA6" stroke-width="0.5" stroke-miterlimit="10"/>
<path d="M63.6082 180.444L57.8262 190.47H69.3975L63.6082 180.444Z" stroke="#E6CAA6" stroke-miterlimit="10"/>
<path d="M63.6082 184.247L61.1167 188.565H66.107L63.6082 184.247Z" stroke="#E6CAA6" stroke-width="0.5" stroke-miterlimit="10"/>
<path d="M63.6084 224.472L56.9692 209.197H70.2548L63.6084 224.472Z" stroke="#E6CAA6" stroke-miterlimit="10"/>
<path d="M63.6083 220.75L59.3953 211.059H67.8286L63.6083 220.75Z" stroke="#E6CAA6" stroke-width="0.5" stroke-miterlimit="10"/>
<path d="M41.5916 211.56C41.5916 210.543 42.4196 209.714 43.4366 209.714C44.4535 209.714 45.2816 210.543 45.2816 211.56C45.2816 212.578 44.4535 213.407 43.4366 213.407C42.4196 213.407 41.5916 212.578 41.5916 211.56Z" stroke="#E6CAA6" stroke-miterlimit="10"/>
<path d="M63.6082 202.254C65.245 202.254 66.5718 200.926 66.5718 199.288C66.5718 197.65 65.245 196.322 63.6082 196.322C61.9714 196.322 60.6445 197.65 60.6445 199.288C60.6445 200.926 61.9714 202.254 63.6082 202.254Z" stroke="#E6CAA6" stroke-miterlimit="10"/>
<path d="M51.6664 184.894C52.3043 184.894 52.8214 184.376 52.8214 183.738C52.8214 183.099 52.3043 182.582 51.6664 182.582C51.0286 182.582 50.5115 183.099 50.5115 183.738C50.5115 184.376 51.0286 184.894 51.6664 184.894Z" stroke="#E6CAA6" stroke-miterlimit="10"/>
<g opacity="0.25">
<path opacity="0.25" d="M69.3396 179.114C65.359 198.794 56.2356 217.42 43.0735 232.571C43.4004 232.862 43.7345 233.16 44.0759 233.429H66.3178C73.371 227.853 78.1434 217.136 78.1434 204.835C78.1434 194.388 74.7003 185.097 69.3396 179.114Z" fill="#FEE6C6"/>
</g>
<path d="M67.6325 177.398H42.7611C42.0057 177.398 41.3955 176.787 41.3955 176.031V175.748C41.3955 174.992 42.0057 174.381 42.7611 174.381H67.6325C68.388 174.381 68.9981 174.992 68.9981 175.748V176.031C69.0054 176.787 68.388 177.398 67.6325 177.398Z" fill="#F9D8AC"/>
<path d="M69.2158 144.85C69.9131 142.48 70.7921 140.16 71.7727 137.885C72.746 135.609 73.8647 133.392 75.0632 131.225C76.2835 129.066 77.591 126.965 79.0293 124.951C79.7557 123.948 80.4893 122.952 81.252 121.978C82.0365 121.018 82.8137 120.066 83.6491 119.15C83.3004 119.659 82.9445 120.168 82.5813 120.662L81.5353 122.189C80.838 123.207 80.1552 124.232 79.4942 125.264C78.1721 127.343 76.8937 129.437 75.6952 131.582C74.4821 133.719 73.3635 135.907 72.2739 138.118C71.1916 140.335 70.1964 142.589 69.2158 144.85Z" fill="#66A986"/>
<path d="M51.7683 103.345C51.3688 101.113 51.0492 98.8734 50.7441 96.6342C50.4317 94.395 50.1702 92.1486 49.9087 89.9094C49.669 87.6629 49.4293 85.4165 49.2405 83.1627L48.9644 79.7821C48.8991 78.6553 48.8119 77.5211 48.7683 76.3943C48.9717 77.5066 49.1315 78.6262 49.3204 79.7458L49.7925 83.1046C50.1049 85.3438 50.3664 87.5902 50.6279 89.8367C50.8676 92.0831 51.1073 94.3296 51.2961 96.5906C51.4923 98.8298 51.6666 101.084 51.7683 103.345Z" fill="#66A986"/>
<path d="M34.72 116.031C35.9548 117.957 37.0517 119.964 38.0831 122.007C39.1219 124.05 40.0371 126.143 40.8942 128.274C41.7296 130.404 42.4996 132.563 43.1533 134.759C43.4729 135.856 43.7853 136.961 44.0685 138.066C44.33 139.179 44.5988 140.291 44.8095 141.418L43.7271 138.168C43.3712 137.085 43.0008 136.009 42.623 134.933C41.8531 132.788 41.0686 130.651 40.226 128.543C39.3979 126.427 38.4972 124.333 37.5892 122.247C36.6594 120.16 35.6933 118.103 34.72 116.031Z" fill="#66A986"/>
<path d="M60.8335 126.885C61.9739 124.115 63.1071 121.353 64.1749 118.561C65.2427 115.769 66.2959 112.978 67.2402 110.149C68.2426 107.336 69.1361 104.486 70.0077 101.636C70.4436 100.211 70.8649 98.779 71.2789 97.3395L72.5065 93.0211C72.2523 94.4969 71.9327 95.9582 71.6203 97.4268C71.2789 98.8881 70.9157 100.342 70.5453 101.789C69.7753 104.69 68.8746 107.547 67.923 110.389C66.9206 113.21 65.8673 116.024 64.6833 118.779C63.5066 121.52 62.2427 124.239 60.8335 126.885Z" fill="#66A986"/>
<path d="M196.936 97.652H141.927C128.605 97.652 117.804 108.463 117.804 121.796V180.822H221.067V121.796C221.067 108.463 210.265 97.652 196.936 97.652Z" fill="#5C6193"/>
<path d="M208.842 167.83H130.021V180.822H208.842V167.83Z" fill="#4E5567"/>
<path d="M208.842 180.822H123.913V213.843H208.842V180.822Z" fill="#8E97FD"/>
<path d="M215.568 218.736H123.303C120.6 218.736 118.414 216.548 118.414 213.843H220.457C220.457 216.548 218.263 218.736 215.568 218.736Z" fill="#3F414E"/>
<path d="M120.862 234.025H117.804L123.302 218.736H127.581L120.862 234.025Z" fill="#3F414E"/>
<path d="M218.009 234.025H221.067L215.568 218.736H211.29L218.009 234.025Z" fill="#3F414E"/>
<path d="M109.044 107.125C106.087 105.155 103.603 102.349 102.433 98.9897C101.264 95.631 101.526 91.7051 103.509 88.7534C105.492 85.8018 109.276 84.0424 112.741 84.8348C112.886 80.1529 117.186 76.7432 121.349 74.5985C125.932 72.2357 130.719 70.869 135.404 73.0136C138.012 74.2132 140.758 76.1616 142.138 78.6843C143.518 81.1998 144.339 83.977 145.138 86.7396C148.414 84.7912 152.874 85.0893 155.866 87.4521C158.859 89.8149 160.174 94.0897 159.041 97.732C162.745 96.1617 167.234 95.4637 170.641 97.6084C174.222 99.8622 175.457 104.493 175.704 108.724C175.915 112.359 175.551 116.213 173.488 119.208C171.048 122.756 166.726 124.428 162.636 125.773C155.561 128.092 148.276 130.033 140.83 130.251C133.385 130.469 125.714 128.855 119.612 124.588C113.504 120.32 109.196 113.166 109.414 105.715" fill="#4E5567"/>
<path d="M105.143 112.417C101.438 112.614 97.9227 114.962 96.3174 118.314C94.712 121.665 95.0752 125.874 97.2326 128.892C94.1527 128.935 91.1673 130.767 89.729 133.493C88.2908 136.22 88.4724 139.717 90.1721 142.283C91.6104 144.45 93.9566 145.86 96.39 146.776C103.138 149.313 110.809 148.455 117.506 145.787C121.356 144.253 125.053 142.079 127.646 138.852C130.24 135.624 131.591 131.211 130.472 127.219C129.687 124.435 127.792 122.072 125.554 120.255C123.31 118.437 120.717 117.107 118.138 115.82C113.692 113.602 109.036 111.407 104.068 111.32" fill="#3F4553"/>
<path d="M126.971 161.251H105.586C98.8378 161.251 93.3682 155.777 93.3682 149.023C93.3682 142.269 98.8378 136.794 105.586 136.794H122.533C124.988 136.794 126.978 138.786 126.978 141.244V161.251H126.971Z" fill="#8E97FD"/>
<path d="M130.022 213.843H115.792C110.831 213.843 106.806 209.815 106.806 204.85V136.787H121.036C125.997 136.787 130.022 140.815 130.022 145.78V213.843Z" fill="#8E97FD"/>
<path d="M132.535 75.878C134.467 75.42 136.646 75.7689 138.361 76.9467C139.203 77.5356 139.944 78.2989 140.416 79.2077C140.699 79.6366 140.845 80.131 141.026 80.5963C141.164 81.0761 141.259 81.5778 141.339 82.0576C141.099 81.6141 140.946 81.1488 140.699 80.7272C140.445 80.3128 140.242 79.8766 139.937 79.5058C139.407 78.7206 138.716 78.0663 137.946 77.5356C137.184 76.9976 136.312 76.6123 135.404 76.3433C134.489 76.0961 133.53 75.9216 132.535 75.878Z" fill="white"/>
<path d="M164.874 99.8184C166.907 99.782 169.014 100.538 170.554 101.999C170.946 102.356 171.258 102.792 171.571 103.214C171.818 103.686 172.108 104.13 172.246 104.638C172.45 105.126 172.515 105.649 172.595 106.158C172.646 106.674 172.624 107.19 172.61 107.692C172.384 106.696 172.159 105.722 171.723 104.849C171.324 103.962 170.757 103.17 170.053 102.516C169.363 101.847 168.549 101.301 167.677 100.858C166.784 100.436 165.854 100.066 164.874 99.8184Z" fill="white"/>
<path d="M152.634 89.146C153.084 89.2114 153.513 89.3714 153.927 89.5749C154.341 89.7785 154.719 90.0475 155.053 90.3601C155.387 90.68 155.663 91.0726 155.852 91.4942C156.048 91.9159 156.121 92.3885 156.106 92.8392C155.961 92.4103 155.837 91.9886 155.598 91.6251C155.365 91.2616 155.111 90.9199 154.791 90.6218C154.174 90.0257 153.433 89.5531 152.634 89.146Z" fill="white"/>
<path d="M163.689 120.691C164.605 117.361 164.307 113.596 162.375 110.731C160.443 107.867 156.738 106.136 153.397 107.009C154.421 104.602 152.939 101.731 150.774 100.255C148.617 98.7791 145.944 98.3211 143.387 97.7395C135.876 96.031 128.678 92.9412 122.264 88.6736C119.017 86.5144 118.479 87.0015 116.947 83.5191C116.031 84.8641 114.237 87.0524 114.186 88.7173C111.288 86.0709 105.477 85.7947 103.501 88.7463C101.518 91.698 101.257 95.6239 102.426 98.9827C103.596 102.341 106.08 105.148 109.036 107.118L109.399 105.708C109.182 113.159 113.489 120.313 119.598 124.581C125.707 128.848 133.377 130.462 140.816 130.244C147.68 130.041 154.406 128.376 160.958 126.296C162.171 124.573 163.137 122.705 163.689 120.691Z" fill="#3F4553"/>
<path d="M123.419 145.78V205.41H111.797V155.115H108.608C105.245 155.115 102.521 152.389 102.521 149.023C102.521 145.657 105.245 142.93 108.608 142.93H120.571C122.148 142.93 123.419 144.202 123.419 145.78Z" stroke="#8C96FF" stroke-miterlimit="10"/>
<path d="M135.593 96.438C135.106 92.6284 137.518 89.1824 140.975 88.7389C144.44 88.2954 147.644 91.0145 148.138 94.824C148.624 98.6335 146.213 102.08 142.755 102.523C139.29 102.967 136.087 100.24 135.593 96.438Z" fill="#8E97FD"/>
<path d="M135.593 96.4398C136.08 100.249 139.29 102.976 142.755 102.525C144.193 102.343 145.443 101.631 146.387 100.606C142.087 97.8429 141.331 90.9872 141.193 88.7262C141.121 88.7335 141.055 88.7335 140.983 88.7407C137.518 89.1842 135.106 92.6302 135.593 96.4398Z" fill="#8E97FD"/>
<path d="M126.361 112.178L128.801 123.185L137.358 125.628C137.358 125.628 140.416 122.567 140.416 121.956C140.416 121.345 136.138 109.728 136.138 109.728L126.361 112.178Z" fill="#FDBCA0"/>
<path d="M136.13 109.735L126.353 112.178L127.189 115.936C128.939 116.693 130.915 117.252 133.167 117.529C134.394 117.681 135.658 117.449 136.733 116.823C137.285 116.504 137.801 116.111 138.295 115.697C137.22 112.694 136.13 109.735 136.13 109.735Z" fill="#DF8370"/>
<path d="M112.915 90.1639C112.915 90.1639 111.695 114.017 133.08 115.238C139.799 112.796 144.077 103.621 142.857 96.278C141.636 88.9425 133.69 76.7069 122.082 80.3783C115.973 82.8283 112.915 90.1639 112.915 90.1639Z" fill="#FDBCA0"/>
<path d="M180.738 117.689L196.275 98.6773C196.893 97.9212 197.234 96.9761 197.234 95.9946V90.8329C197.234 90.4403 197.488 90.084 197.859 89.9605C198.454 89.7642 199.064 90.2076 199.064 90.8329V94.4534L204.563 84.6678L211.892 84.0571L202.115 101.178L187.45 126.864L180.738 117.689Z" fill="#FDBCA0"/>
<path d="M249.17 100.56L274.834 109.124L282.729 102.465C285.686 99.9713 290.022 99.7314 293.095 102.08C294.875 103.439 295.812 105.351 293.77 107.903C288.882 114.017 274.826 120.742 274.826 120.742L246.105 114.628L249.17 100.56Z" fill="#FDBCA0"/>
<path opacity="0.5" d="M246.12 114.628L260.379 117.667C261.294 112.527 260.582 107.336 259.921 104.152L249.178 100.567L246.12 114.628Z" fill="#DF8370"/>
<path d="M170.351 144.595C170.351 144.595 202.522 108.819 216.912 96.6051C219.309 94.5695 222.418 93.5807 225.556 93.8352C236.176 94.6931 258.338 98.728 258.338 98.728C258.338 98.728 262.616 114.628 254.669 123.803C249.781 123.192 227.786 118.91 227.786 118.91L183.179 167.83L170.351 144.595Z" fill="#739BE0"/>
<path d="M255.89 131.749L276.664 154.984L293.988 157.958C297.206 158.51 299.226 161.913 297.947 164.922C297.119 166.864 295.136 169.481 290.72 168.441C280.332 165.998 270.555 162.938 270.555 162.938L246.112 143.367L255.89 131.749Z" fill="#FDBCA0"/>
<path opacity="0.5" d="M268.688 146.064L255.89 131.749L246.112 143.367L263.197 157.049C266.015 154.134 268.405 150.419 268.688 146.064Z" fill="#DF8370"/>
<path opacity="0.2" d="M216.774 103.679L171.861 147.321L183.186 167.83L227.793 118.91C227.793 118.91 249.788 123.192 254.676 123.803C255.185 123.221 255.635 122.603 256.049 121.971C248.059 115.435 238.522 107.932 231.418 102.69C226.943 99.3968 220.754 99.8112 216.774 103.679Z" fill="#739BE0"/>
<path d="M152.634 164.159C152.634 164.159 163.632 180.059 179.518 178.227C194.35 176.511 210.774 155.079 222.338 136.816C223.522 134.941 226.173 134.73 227.648 136.38C236.742 146.58 252.839 161.716 252.839 161.716C252.839 161.716 268.115 154.381 268.115 142.756C263.902 137.696 246.323 119.55 235.812 108.768C231.28 104.115 223.943 103.715 218.924 107.838L169.733 148.259L152.634 164.159Z" fill="#97B8FF"/>
<g opacity="0.5">
<path opacity="0.5" d="M179.518 178.227C194.35 176.511 210.774 155.079 222.338 136.816C223.522 134.94 226.173 134.73 227.648 136.38C236.742 146.58 252.839 161.716 252.839 161.716C252.839 161.716 256.398 160 260.081 156.925C251.895 148.768 243.222 141.105 234.113 134.003C231.164 131.705 227.662 129.335 223.994 130.062C220.805 130.702 218.561 133.486 216.607 136.089C212.379 141.716 208.159 147.343 203.931 152.97C199.319 159.114 194.445 165.475 187.537 168.826C181.646 171.676 174.578 171.996 168.455 169.692C163.704 167.903 159.578 164.544 156.782 160.313L152.634 164.166C152.634 164.159 163.632 180.059 179.518 178.227Z" fill="#97B8FF"/>
</g>
<path d="M211.9 161.251H233.284C240.033 161.251 245.502 155.777 245.502 149.023C245.502 142.269 240.033 136.794 233.284 136.794H216.338C213.883 136.794 211.892 138.786 211.892 141.244V161.251H211.9Z" fill="#8E97FD"/>
<path d="M208.842 213.843H223.071C228.033 213.843 232.057 209.815 232.057 204.85V136.787H217.827C212.866 136.787 208.842 140.815 208.842 145.78V213.843Z" fill="#8E97FD"/>
<path d="M214.922 145.78V205.41H226.544V155.115H229.733C233.096 155.115 235.82 152.389 235.82 149.023C235.82 145.657 233.096 142.93 229.733 142.93H217.769C216.193 142.93 214.922 144.202 214.922 145.78Z" stroke="#8C96FF" stroke-miterlimit="10"/>
<path d="M118.414 101.171L108.027 104.232C108.027 104.232 111.085 114.628 126.361 121.353L128.191 120.742C128.191 120.742 136.741 125.533 138.884 117.325C142.341 116.118 146.692 115.115 150.099 114.424C153.622 113.712 157.276 114.272 160.421 115.995L172.639 122.705C173.794 123.337 175.239 123.068 176.089 122.058L184.406 112.178L192.89 118.568L181.13 137.303C180.367 138.525 178.791 138.954 177.513 138.292L166.079 132.36L172.798 142.756C172.798 142.756 172.188 161.716 152.634 164.159C145.915 157.434 137.358 148.87 132.47 145.199C127.581 141.527 111.695 131.131 107.417 126.849C103.138 122.567 92.1407 107.278 91.5305 99.3315C91.5305 95.0494 115.973 91.9959 115.973 91.9959L118.414 101.171Z" fill="#FFFFFE"/>
<path d="M114.506 125.031C101.736 116.271 96.3247 104.828 94.0365 96.9541C92.4966 97.6884 91.5305 98.4881 91.5305 99.3387C92.1407 107.292 103.138 122.574 107.417 126.856C111.695 131.138 127.581 141.534 132.47 145.206C133.341 145.86 134.336 146.674 135.404 147.605C132.796 142.065 127.058 133.646 114.506 125.031Z" fill="#F2F2F2"/>
<path d="M154.414 124.464C154.922 124.319 155.445 124.239 155.975 124.195C156.506 124.144 157.036 124.152 157.573 124.203C158.634 124.304 159.709 124.573 160.675 125.097C161.648 125.591 162.506 126.347 163.13 127.241C163.479 127.67 163.704 128.172 163.958 128.652C164.198 129.139 164.329 129.67 164.518 130.179L164.467 130.077C165.062 130.884 165.614 131.727 166.188 132.549C166.762 133.377 167.3 134.221 167.837 135.079C167.162 134.33 166.493 133.574 165.861 132.803C165.229 132.025 164.568 131.262 163.958 130.469L163.936 130.448L163.9 130.368C163.704 129.902 163.551 129.415 163.326 128.957C163.079 128.521 162.876 128.056 162.549 127.67C162.28 127.249 161.917 126.907 161.568 126.544C161.176 126.238 160.806 125.904 160.355 125.671C159.491 125.169 158.532 124.806 157.515 124.632C156.506 124.457 155.46 124.377 154.414 124.464Z" fill="#97B8FF"/>
<path d="M130.392 97.9938C130.93 98.8444 131.395 100.56 132.753 100.291C133.218 100.197 133.436 99.8405 133.792 99.5642C135.041 98.59 135.695 100.088 134.809 100.909C134.351 101.331 133.712 101.433 133.123 101.498C132.782 101.534 132.775 102.08 133.123 102.043C133.98 101.949 134.881 101.752 135.433 101.025C135.876 100.444 135.964 99.6442 135.477 99.0625C135.026 98.5391 134.358 98.4519 133.792 98.8299C133.261 99.1789 132.964 100.008 132.099 99.6369C131.482 99.3752 131.191 98.2338 130.864 97.7176C130.675 97.4268 130.203 97.6958 130.392 97.9938Z" fill="#444359"/>
<path d="M127.508 106.013C130.349 108.397 134.3 107.881 136.399 104.813C136.596 104.522 136.123 104.246 135.927 104.537C134.046 107.292 130.458 107.779 127.893 105.627C127.625 105.402 127.24 105.787 127.508 106.013Z" fill="#444359"/>
<path d="M120.92 96.3798C121.581 94.6786 123.252 93.7407 125.053 94.0606C125.395 94.1188 125.54 93.5953 125.198 93.5372C123.092 93.1664 121.167 94.2424 120.397 96.2416C120.266 96.5615 120.797 96.6997 120.92 96.3798Z" fill="#444359"/>
<path d="M122.656 101.214L121.211 100.378L122.874 100.524L122.656 101.214Z" fill="#444359"/>
<path d="M123.005 101.418C123.775 99.3387 125.896 98.379 127.988 99.0842C128.322 99.1933 128.467 98.6698 128.133 98.5608C125.751 97.7611 123.346 98.9315 122.482 101.28C122.358 101.6 122.881 101.745 123.005 101.418Z" fill="#444359"/>
<path d="M123.949 99.215L123.303 97.3175L124.581 98.8587L123.949 99.215Z" fill="#444359"/>
<path d="M126.935 98.6261L127.378 97.3175L127.661 98.677L126.935 98.6261Z" fill="#444359"/>
<path d="M137.932 94.1624L138.949 92.832L138.593 94.4678L137.932 94.1624Z" fill="#444359"/>
<path d="M138.709 94.3515C136.407 93.45 133.944 94.4606 132.963 96.7288C132.825 97.0487 133.298 97.325 133.436 97.0051C134.329 94.9404 136.465 94.0534 138.571 94.8749C138.891 95.0058 139.029 94.4751 138.709 94.3515Z" fill="#444359"/>
<path d="M135.557 94.315L135.273 92.3303L136.247 94.0824L135.557 94.315Z" fill="#444359"/>
<path d="M133.356 96.4743L132.535 95.3547L133.806 95.9072L133.356 96.4743Z" fill="#444359"/>
<path d="M198.12 100.567L205.348 77.8847C205.537 77.2958 206.074 76.8887 206.699 76.8742L219.665 76.5325C220.66 76.5034 221.386 77.4631 221.096 78.4154L213.89 101.978C213.694 102.61 213.098 103.032 212.437 103.01L199.45 102.479C198.491 102.421 197.83 101.483 198.12 100.567Z" fill="#3F4553"/>
<path d="M196.9 100.568L204.127 77.8848C204.316 77.2959 204.854 76.8888 205.478 76.8742L218.444 76.5326C219.44 76.5035 220.166 77.4631 219.875 78.4155L212.67 101.978C212.474 102.61 211.878 103.032 211.217 103.01L198.229 102.48C197.263 102.421 196.609 101.484 196.9 100.568Z" fill="#4E5567"/>
<path d="M217.522 80.2257L212.691 96.0091L212.001 98.2774L211.675 99.3461C211.558 99.7242 211.268 100.008 210.919 100.124C210.781 100.168 210.643 100.189 210.498 100.182L207.788 100.073L199.958 99.7532C199.173 99.7169 198.643 98.9535 198.876 98.212L202.617 86.4635L204.033 82.0214L204.745 79.7968C204.774 79.7023 204.817 79.6078 204.876 79.5278C205.079 79.2006 205.435 78.9898 205.834 78.9753L206.212 78.968L216.36 78.699C217.166 78.6772 217.754 79.4551 217.522 80.2257Z" fill="#F2EDE4"/>
<g opacity="0.35">
<path opacity="0.35" d="M212.691 96.0091L212.001 98.2774L204.876 79.5278C205.079 79.2006 205.435 78.9898 205.834 78.9753L206.212 78.968L212.691 96.0091Z" fill="white"/>
</g>
<g opacity="0.35">
<path opacity="0.35" d="M210.919 100.124C210.781 100.168 210.643 100.189 210.498 100.182L207.788 100.073L202.617 86.4635L204.033 82.0214L210.919 100.124Z" fill="white"/>
</g>
<path d="M115.748 104.69C118.269 98.9608 118.937 92.4322 117.637 86.3035C118.545 89.2188 121.719 90.8691 124.748 91.2545C127.777 91.6398 130.85 91.1018 133.9 91.2545C136.951 91.4071 140.249 92.4831 141.789 95.1221C142.072 95.602 142.385 96.1981 142.937 96.2417C143.627 96.2999 144.033 95.4857 144.179 94.8095C145.305 89.7423 143.227 84.1806 139.268 80.8218C135.31 77.4631 129.702 76.2926 124.639 77.434C119.576 78.5754 115.116 81.9051 112.254 86.2308C110.46 88.9426 109.247 92.076 109.065 95.3257C108.884 98.5682 109.784 101.92 111.811 104.457C112.312 105.082 112.93 105.686 113.714 105.86C114.499 106.035 115.457 105.591 115.581 104.791" fill="#3F4553"/>
<path d="M115.679 111.997C119.437 111.23 121.815 107.33 120.991 103.286C120.167 99.2413 116.453 96.5846 112.695 97.3515C108.938 98.1184 106.559 102.019 107.383 106.063C108.207 110.107 111.922 112.764 115.679 111.997Z" fill="#8E97FD"/>
<path d="M111.441 101.672C107.315 89.0806 112.479 84.3332 112.712 84.0279L112.864 84.0133H112.901L113.053 84.0061C112.879 84.246 110.801 89.953 114.194 100.306L111.441 101.672Z" fill="#8E97FD"/>
<path d="M120.15 108.71C109.472 111.545 107.714 105.824 107.736 101.694C107.228 103.025 107.082 104.537 107.395 106.071C108.223 110.12 111.934 112.774 115.69 112.01C117.629 111.603 119.198 110.367 120.15 108.71Z" fill="#8E97FD"/>
</svg>
