<svg width="415" height="351" viewBox="0 0 415 351" fill="none" xmlns="http://www.w3.org/2000/svg">
<path d="M109.772 103.001C94.8011 43.1805 38.8707 2.1827 -22.7017 5.88787C-29.5163 6.29733 -35.5157 1.44006 -36.5517 -5.30392L-40.7883 -32.8258C-41.9649 -40.4609 -36.371 -47.4458 -28.6649 -48.0318C-9.02426 -49.5251 10.5482 -47.8432 29.6909 -43.01C52.6244 -37.2174 73.9597 -27.1616 93.1065 -13.1277C112.253 0.906162 128.26 18.2277 140.68 38.3513C151.049 55.151 158.53 73.3036 163.011 92.4798C164.77 100.003 159.783 107.433 152.145 108.609L124.609 112.844C117.863 113.884 111.426 109.621 109.772 103.001Z" fill="#FAF8F5"/>
<path d="M278.047 58.8936C339.057 49.7932 385.298 -1.88251 387.571 -63.5016C387.824 -70.3218 393.241 -75.8174 400.056 -76.1987L427.868 -77.7482C435.582 -78.1778 441.999 -71.9356 441.835 -64.2161C441.417 -44.5301 437.851 -25.2215 431.181 -6.64345C423.194 15.6117 411.115 35.8677 395.285 53.5586C379.455 71.2495 360.658 85.4962 339.419 95.9052C321.69 104.592 302.888 110.28 283.364 112.882C275.706 113.901 268.787 108.221 268.357 100.51L266.807 72.7067C266.434 65.8945 271.297 59.9012 278.047 58.8936Z" fill="#FAF8F5"/>
<path d="M317.926 179.206C349.367 232.251 414.679 255.56 472.623 234.412C479.035 232.072 486.172 235.009 489.093 241.178L501.017 266.343C504.323 273.322 500.962 281.615 493.746 284.379C475.35 291.422 456.115 295.407 436.39 296.243C412.758 297.245 389.44 293.709 367.078 285.73C344.717 277.751 324.43 265.725 306.78 249.991C292.046 236.854 279.685 221.6 269.913 204.502C266.082 197.797 268.736 189.25 275.716 185.94L300.89 174.013C307.061 171.091 314.449 173.336 317.926 179.206Z" fill="#FAF8F5"/>
</svg>
