<svg width="415" height="504" viewBox="0 0 415 504" fill="none" xmlns="http://www.w3.org/2000/svg">
<g clip-path="url(#clip0_1_3662)">
<path d="M0.5 -1V381.053C0.5 381.053 32.7351 449.788 115.612 441.811C198.489 433.835 215.677 390.876 315.743 470.049C315.743 470.049 351.043 503.185 415.5 501.967V-1H0.5Z" fill="#FAF8F5"/>
<path d="M402.649 504C349.855 504 318.572 479.662 318.238 479.381C255.685 430.238 217.338 439.61 164.278 452.6C150.205 456.045 135.638 459.609 119.029 462.6C37.8493 477.232 -2.09944 434.67 -2.5 434.23L-1.51196 433.335C-1.12476 433.762 38.3967 475.777 118.775 461.291C135.358 458.301 149.885 454.75 163.944 451.305C217.378 438.235 255.978 428.796 319.053 478.34C319.44 478.647 357.399 508.152 420.353 501.757L420.487 503.079C414.305 503.72 408.35 504 402.649 504Z" fill="#F9F0E3"/>
</g>
<defs>
<clipPath id="clip0_1_3662">
<rect width="423" height="504" fill="white" transform="translate(-2.5)"/>
</clipPath>
</defs>
</svg>
